<svg xmlns="http://www.w3.org/2000/svg" viewBox="0 0 412.95 330.41"><defs><style>.cls-1,.cls-3{stroke:#000;}.cls-1,.cls-2,.cls-3{stroke-miterlimit:10;fill-rule:evenodd;}.cls-2{stroke:#030303;stroke-width:5px;}.cls-3{stroke-width:6px;}</style></defs><g id="Layer_2" data-name="Layer 2"><g id="Layer_1-2" data-name="Layer 1"><path class="cls-1" d="M277.88,36.46c-19.43-2.74-40.4.54-57.87,10-13.62,7.41-22.63,19.07-30.73,30.18s-15.42,21.8-24.3,28.94c-14.88,12-30.2,23.4-46.48,27.45-15.64,3.89-43.29,3.1-66.24.89s-41.46-5.54-41.46-5.54h0A8.75,8.75,0,0,0,.58,138.22S2.28,150.73,5.26,166s7,33.25,12.89,45.9c13.17,28.45,31.07,57.16,57,77.07,29.38,22.56,66.31,38.48,103.87,40.64,36.64,2.12,74.53-8.74,105.45-27.82,27.13-16.74,47.17-43.12,62-69.9,14.47-26.17,26.25-56.56,25.7-87.91-.45-25.35-7.09-53.36-24.85-73.59s-44.36-30.44-69.41-34Zm-2.46,17.33c22,3.09,45.06,12.6,58.75,28.2s20.08,39.93,20.47,62.34c.47,26.69-9.9,54.5-23.51,79.12-13.9,25.15-32.49,49.06-55.85,63.48-28,17.26-62.81,27.13-95.26,25.26-33.25-1.92-67.31-16.42-94.2-37.06C63.29,257.83,46.55,231.6,34,204.59c-4.38-9.48-8.74-27.14-11.62-41.9-1.65-8.48-1.81-10.47-2.56-15.38,6.93,1.13,13.73,2.45,30.73,4.1,23.71,2.29,51.74,3.75,72.15-1.33,21.07-5.25,38.11-18.65,53.22-30.8,11.7-9.41,19.66-21.54,27.48-32.26S218.8,67.11,228.39,61.9c13.69-7.46,31.33-10.32,47-8.11Z"/><path class="cls-1" d="M286.84,86.4a27,27,0,0,0-14.49,3.76c-8.67,5-12.76,14-12.48,23.24A23.14,23.14,0,0,0,271.42,133a25.52,25.52,0,0,0,25,1.09c7.92-4,12.11-11.44,13.16-19.35s-.3-17.08-8.41-23.17a25,25,0,0,0-14.35-5.13Zm-5.74,18.93c2.73-1.66,7.11-1.84,9.6.18,1.83,1.49,1.95,4.55,1.57,6.87s-1.63,5-3.72,6.05c-2.4,1.26-6.26.66-8.11-.44a7.6,7.6,0,0,1-3.07-5.06,8.83,8.83,0,0,1,3.73-7.59Z"/><path class="cls-1" d="M358.24,89.44,352.7,106l31.24,10.39L359,133l9.71,14.56L408.55,121h0a8.76,8.76,0,0,0-2.09-15.59Z"/><path class="cls-1" d="M264.79,180.39a8.73,8.73,0,0,0-9,7.55s-2.74,16.33-4.65,21.78c-3.48,9.89-7.09,19.16-12.58,25.6a89.4,89.4,0,0,1-33.74,24.13,74,74,0,0,1-32.26,4.85c-4.3-.3-13.17-2.7-20.27-5.13s-12.68-4.75-12.68-4.75a8.75,8.75,0,1,0-6.7,16.17s6,2.5,13.71,5.13,16.66,5.5,24.74,6a90.79,90.79,0,0,0,40.06-6.12,106,106,0,0,0,40.44-29c8.23-9.65,12.25-21.08,15.79-31.14,3.37-9.58,5.43-24.95,5.43-24.95h0a8.75,8.75,0,0,0-8.34-10.18Z"/><path class="cls-1" d="M245.21.54A8.75,8.75,0,0,0,245.45,18a24.17,24.17,0,0,1,6.11,1.68,16.17,16.17,0,0,1,5.23,3.46c1.95,2.59,2.77,10.13,2,16a8.76,8.76,0,0,0,17.37,2.33c1.07-8,1.81-19.3-5.33-28.81-3.5-4.66-8.05-7.22-12.38-9.06a34.47,34.47,0,0,0-12.34-3c-.29,0-.58,0-.88,0Z"/><path class="cls-1" d="M295.89,3.17a32.42,32.42,0,0,0-12.72,1.3c-4.54,1.23-9.4,3.13-13.5,7.25-8.4,8.43-9.24,19.75-9.29,27.82h0a8.75,8.75,0,1,0,17.5.17c0-5.91,1.92-13.3,4.2-15.59a16.59,16.59,0,0,1,5.68-2.66,25.67,25.67,0,0,1,6.22-.83h0a8.75,8.75,0,1,0,1.92-17.4Z"/><path class="cls-2" d="M53.39,172.67a3.14,3.14,0,0,0-1.5.49l-30.4,18.78a4,4,0,0,0-1.3,5.09,3.21,3.21,0,0,0,4.59,1.44l30.37-18.78a3.91,3.91,0,0,0,1.68-4.3,3.44,3.44,0,0,0-3.44-2.73Z"/><path class="cls-3" d="M57.18,195.24a3.87,3.87,0,0,0-2.07.63l-26,16.4a3.64,3.64,0,0,0-1.12,5.13,3.93,3.93,0,0,0,5.32,1.08l26-16.43h0a3.62,3.62,0,0,0,1.61-4.18,3.81,3.81,0,0,0-3.73-2.63Z"/></g></g></svg>