<svg xmlns="http://www.w3.org/2000/svg" viewBox="0 0 1596.95 630"><g id="Layer_2" data-name="Layer 2"><g id="Layer_2-2" data-name="Layer 2"><path d="M0,204.48H340.2q3.24,0,3.24-4.68v-1.08H0V52.92Q0,28.8,14.58,14.4T54.72,0H683.28V128.88h-338V63.72h-2.52q-1.44,0-2.34,2a10.76,10.76,0,0,0-.9,4.5v64.44h343.8v82.44q0,24.12-14.22,38.52T629.64,270H0Z"/><path d="M688.68,0h339.48V205.92h5.76V71.28h338V270H688.68Z"/><path d="M1377.35,0h54V270h-54Z"/><path d="M1437.11,0H1597V270h-50.4V46.44h-5.76V270h-47.52V46.44h-5.76V270h-50.4Z"/><path d="M.36,360h410.4v14.76H825.12v68.4H410.76V561.6H414q1.08,0,1.8-1.62a8.33,8.33,0,0,0,.72-3.42V448.92h408.6V578.16q0,22-14.76,36.9T772.56,630H.36Z"/><path d="M889,576h-5.76v54h-50.4V360h50.4V529.2H889V360h50.4V630H889Z"/><path d="M947.2,360h54V630h-54Z"/><path d="M1022.81,374.4Q1037,360,1062.23,360h235.08V523.44H1155.83V411.84h-2.52q-1.44,0-2.34,2a10.76,10.76,0,0,0-.9,4.5V577.8h2.52a2.67,2.67,0,0,0,2.34-1.8,9.57,9.57,0,0,0,.9-4.32V529.2h141.48v47.88q0,24.12-14.22,38.52T1243.31,630H1008.59V412.92Q1008.59,388.8,1022.81,374.4Z"/><path d="M1307.71,360h141.48V523.8h3.24c.72,0,1.31-.54,1.8-1.62a8.33,8.33,0,0,0,.72-3.42V360h141.48V509.4q0,22-14.76,36.72t-37.8,14.76h-94.68V630H1307.71Zm147.6,216h-20.52V547.2h162V630H1455.31Z"/></g></g></svg>