<svg xmlns="http://www.w3.org/2000/svg" viewBox="0 0 397.52 87.69"><defs><style>.cls-1{fill:#fff;}</style></defs><g id="Layer_2" data-name="Layer 2"><g id="Layer_1-2" data-name="Layer 1"><path class="cls-1" d="M22.94,38.8H0V17.42q13.46-.18,18.92-1.2c3.64-.68,6.15-2,7.54-4S29,6.81,29.85,1.8h30V85.88H22.94Z"/><path class="cls-1" d="M96.51,52.55A88.11,88.11,0,0,1,114,27H66.79V1.8h85V21A94.48,94.48,0,0,0,139,38.71a102.05,102.05,0,0,0-8.68,20.9,172.3,172.3,0,0,0-5.41,26.27H87.69Q90.33,66.43,96.51,52.55Z"/><path class="cls-1" d="M167.08,76.88Q154.53,66.07,154.53,44v-.24q0-22.15,12.55-33T205.34,0q25.71,0,38.26,10.81t12.55,33V44q0,22-12.55,32.86T205.34,87.69Q179.63,87.69,167.08,76.88Zm47.57-17.54q3.06-4.87,3.06-14.78v-1.5q0-10-3.06-14.83t-9.31-4.87q-6.24,0-9.31,4.87T193,43.06v1.5q0,9.91,3.06,14.78t9.31,4.86Q211.58,64.2,214.65,59.34Z"/><path class="cls-1" d="M267.37,1.8h45.17l10.33,24.57q2.94,7.08,5,12.67t4.21,13h1.26q2.1-7.32,4.14-12.85t5.05-12.79L352.66,1.8h44.86V85.88h-36V62.28q0-8,.72-16.58l-1.2-.24L346.35,85.88H318.54L304,45.46l-1.26.24q.72,9.44.72,16.58v23.6h-36Z"/></g></g></svg>