<svg xmlns="http://www.w3.org/2000/svg" viewBox="0 0 402.02 62.78"><defs><style>.cls-1{fill:#fff;}</style></defs><g id="Layer_2" data-name="Layer 2"><g id="Layer_1-2" data-name="Layer 1"><path class="cls-1" d="M14.91,25.91H0V12.46a66,66,0,0,0,11.64-1,7.31,7.31,0,0,0,4.8-2.92q1.35-2.13,1.95-7.24H37V61.44H14.91Z"/><path class="cls-1" d="M59.6,35.81A52.72,52.72,0,0,1,70.73,17.57H41.55V1.25H93.2V14.09A58.9,58.9,0,0,0,81.83,34q-3.93,11.4-5,27.47H54.53Q55.68,46.41,59.6,35.81Z"/><path class="cls-1" d="M123.15,61.44V17.62H107V1.29h54.66V17.62h-16.2V61.44Z"/><path class="cls-1" d="M187.73,46.41h28.06v15H165.47V1.29h49.46v15h-27.2v8.33h25.44V38H187.73Z"/><path class="cls-1" d="M242.56,46.41h28.06v15H220.3V1.29h49.46v15h-27.2v8.33H268V38H242.56Z"/><path class="cls-1" d="M275.13,1.29h23.12L310.1,22.34c.95,1.67,1.81,3.28,2.58,4.86s1.65,3.48,2.62,5.71l.86-.21q-.69-6.87-.68-11.39v-20H337V61.44h-23.2L302.37,41c-1.15-2.06-2.14-4-3-5.77s-1.71-3.82-2.6-6.08l-.85.25q.68,7.05.68,12v20H275.13Z"/><path class="cls-1" d="M355.72,60.44a21.27,21.27,0,0,1-10.19-6.84,16,16,0,0,1-3.16-10.85L363.82,41a8.25,8.25,0,0,0,2.62,5.7c1.46,1.22,3.76,1.82,6.91,1.82a10.09,10.09,0,0,0,4.95-1,3.09,3.09,0,0,0,1.72-2.8,2.7,2.7,0,0,0-.91-2,9.39,9.39,0,0,0-3.2-1.63,60.62,60.62,0,0,0-6.72-1.74l-8.77-1.85q-17.58-3.82-17.53-18a16.84,16.84,0,0,1,3.42-10.74,20.56,20.56,0,0,1,9.81-6.53A47.64,47.64,0,0,1,371.46,0,48.2,48.2,0,0,1,387,2.21a21.07,21.07,0,0,1,9.79,6.34,15,15,0,0,1,3.35,9.8c0,.57,0,1,0,1.29l-19.55,1.72q-.55-7.18-9.5-7.18a10.77,10.77,0,0,0-5.11,1,2.9,2.9,0,0,0-1.8,2.53,2.39,2.39,0,0,0,.71,1.76,7.75,7.75,0,0,0,2.9,1.49,52.85,52.85,0,0,0,6.61,1.61l8.85,1.76a50,50,0,0,1,9.48,2.73,15.84,15.84,0,0,1,6.66,5.2Q402,35.79,402,41.68A18.15,18.15,0,0,1,398.38,53,22.36,22.36,0,0,1,388,60.28a46.52,46.52,0,0,1-16.11,2.5A49.26,49.26,0,0,1,355.72,60.44Z"/></g></g></svg>