<svg xmlns="http://www.w3.org/2000/svg" viewBox="0 0 1931.17 4989.81"><defs><style>.cls-1{fill:#fff;}.cls-2,.cls-4,.cls-5{fill:none;}.cls-2,.cls-3,.cls-4{stroke:#ffc0ab;}.cls-2,.cls-4{stroke-miterlimit:10;}.cls-2,.cls-5{stroke-width:5px;}.cls-3,.cls-4{stroke-width:4px;}.cls-5{stroke:#000;}.cls-6{font-size:44px;}.cls-6,.cls-7{font-family:RightGrotesk-WideMedium, Right Grotesk;font-weight:500;}.cls-7{font-size:45px;}</style></defs><g id="Layer_2" data-name="Layer 2"><g id="left-sil"><path d="M5.67,219.2c325.15-78.89,555.67,44.2,696.49,351.74,21,39,124,154,163,193s42,65.72,2,91-46,10-56,38c0,0-14.16,36.81,18,77,8,10-21.08,42.31-4,85,10,25,31,23.62,32,37,3,40,49.52,124,48,168,8.37,136.76-186.25,135.11-198,272-17,168,59.27,202.65,105,373,97.63,307.51,32.51,996.08,128.5,1312.5l-935,124Z"/></g><g id="left-sil-line"><line class="cls-1" x1="5.67" y1="3109.42" x2="5.67" y2="219.2"/><path class="cls-2" d="M832.17,970.92c8,10-24.08,41.81-7,84.5,10,25,31,23.62,32,37,20.56,101.8,110.81,215.3-29,293-74,41-115.74,95.07-121,147-17,168,59.27,202.66,105,373,97.63,307.51,33,986.08,129,1302.5"/></g><g id="rap-sil"><g id="butt-neg"><path class="cls-3" d="M1927.67,3208.42v1776c-55,3-1922,7-1922-3,0-87.74-8.26-1742.4,0-1746,241-105,641-144,945-27,381.74,146.92,658.5,482,827,463,149.2-16.82,129-238-44-216-125.61,16-437,408-637-243"/></g></g><g id="cover"><path d="M1118.28,3289.9c32,15.93,384.6,250.08,405.65,273,15.78,17.21-125,137.82-292.09-38.3C1146.62,3434.84,1094.17,3277.92,1118.28,3289.9Z"/></g><g id="right-sil"><path d="M1176.67,3252.42l752-32-3-3097c-158-32.6-517,86-534.5,290.5-10,117-93,122-208,209-48.09,36.39-141.41,137.25-134.5,192.5,4,32,72,41,85.5,62.5,22.32,35.55-27.5,44.4-27.5,81.5,0,17,44,67-19.5,110.5-17,11.64-2,37-16.5,79.5-13.9,40.74-50.5,139.5-30.5,175.5,23.32,42,50,47,116,94s82.86,110.71,78,180c-8,114-71.74,174.06-111,327-119.52,378.67-122.5,924.5-20.5,1295.5"/></g><g id="right-sil-line"><path class="cls-4" d="M1104.67,959.42c0,17,44,66-19.5,109.5-17,11.64-2,37-16.5,79.5-13.9,40.74-50.5,139.5-30.5,175.5,23.32,42,50,47,116,94s82.86,110.71,78,180c-8,114-71.74,174.06-111,327-119.52,378.67-123.5,987.5-5.5,1345.5"/></g><g id="left-eye-white"><path class="cls-1" d="M365.17,742.92s124-22,176-56,61-76,61-76,21,45,13,86c-4.8,24.62-29,60-86,67C486.2,769.2,365.17,742.92,365.17,742.92Z"/></g><g id="right-eye-white"><path class="cls-1" d="M1428.73,521.48s17.7,1.72,45.43,10.35,80.14,31.74,111.15,51.62,80.58,47.39,80.58,47.39a74.78,74.78,0,0,0-12.74,3.1c-5.6,2-17.67,2.22-25.14,1.13s-12.44-3.33-30.88-8.54-75.7-25.13-91-32.21S1461.33,572,1448,558.25,1428.73,521.48,1428.73,521.48Z"/></g><g id="left-head"><path class="cls-1" d="M2.67,207.42c47-28,406.63-18.22,490.56,56.55,63.61,37.44,60.54,76.07,57.23,82.58.27-1.35-5.48-12.57-16.16-16.61a30.29,30.29,0,0,1,2.37,23c-3.67,13.35-28.45,13.55-32.16,11.55,11.84-6.37-3.69-18.25-11.2-20.75a.3.3,0,0,0-.29.52c2.75,2,6.78,6.93,5.65,17.68-1.63,17-29.69,16.5-33.42,14.56,2.51-2,11.79-10.31.42-15.56-3-1.3-7.84-3.1-7.39-1.59,2,.87,5.08,3.67,4.39,12.59-.64,9.93-23.3,16.3-27.24,15.33,2.14-2.1,7.33-8.59-5.76-12.33-7-2,0,2-2,11-3.31,16.19-28.38,15.69-33.46,12.65,7.17-3,9.49-19.74-4.6-17.67.6.52,5.08,9.91,1.06,18.52-8,13.76-18.22,12.5-27,13,2.16-1.9,4-12,0-17-4.56-5.82-11-4.88-10.48-3.18,6.48,20.18-8.82,34.45-31.52,33.18,0,0,4.7-5.52,4-11-.93-7.27-8-12-9-10s7,21-20,30c0,0,2-15-12-18-3.92-.84,7.75,19.6-8,28-15,8-26-1-25-1,16.28,0,6-19-4-21-3.49-.69,5,4,1,15-2.73,7.52-19.8,17.39-35,13,12.86-4.9,2-19-9-14,0,0,6.89,5.17,1.28,13-3.41,4.75-8.35,9.05-20.28,13,1.87-.62,3.39-7.95-1-13-2.65-3.05-7-5-14-6-2.21-.31-2,11,8,11,1.73,0-10,7.83-21,6-6-1-13-5-18-10-1.55-1.54,0,13,20,16,4.33.65-15,9-28,8-26.23-2-24.31-22.49-26-18-6,16,11,17,11,17-29,9-36-5-40-12-1.06-1.86-5,6,0,11s13.28,5.68,13,6c-6,7-20.14,11.63-30,9-15-4-13.29-16.86-14-16-9,11,6.2,15.94,6,16-12,4-20.94,3-30-11.5-2.74,8.22-16.81,15.3-19,15.5C1.72,491.51,3.07,207.19,2.67,207.42Z"/></g><g id="right-head"><path class="cls-1" d="M1928.67,96.92l-74-12c-39.37-6.38-172.37-20.82-260,51-105.87,86.78-118,117-118,117S1626,360.83,1723.37,393.85c85.56,29,205.3,115.07,205.3,115.07Z"/></g><g id="line-cover"><polyline class="cls-5" points="1928.67 3212.42 1927.17 4983.92 5.17 4980.92 5.67 3235.42"/></g><g id="Type"><text class="cls-6" transform="matrix(1, -0.07, 0.07, 1, 54.93, 163.13)">Z</text><text class="cls-6" transform="translate(79.18 161.48) rotate(-2.57)">u</text><text class="cls-6" transform="matrix(1, -0.03, 0.03, 1, 106.44, 160.26)">c</text><text class="cls-6" transform="matrix(1, -0.01, 0.01, 1, 133.78, 159.57)">k</text><text class="cls-6" transform="translate(156.34 159.34)">-</text><text class="cls-6" transform="translate(172.93 159.31) rotate(0.69)">b</text><text class="cls-6" transform="matrix(1, 0.03, -0.03, 1, 201.1, 159.65)">u</text><text class="cls-6" transform="matrix(1, 0.04, -0.04, 1, 228.4, 160.38)">c</text><text class="cls-6" transform="matrix(1, 0.06, -0.06, 1, 255.71, 161.56)">k</text><text class="cls-6" transform="translate(278.24 162.89) rotate(4.09)">-</text><text class="cls-6" transform="translate(294.72 164.02) rotate(5.05)">a</text><text class="cls-6" transform="matrix(0.99, 0.11, -0.11, 0.99, 320.46, 166.33)">-</text><text class="cls-6" transform="translate(336.91 168.11) rotate(6.93)">l</text><text class="cls-6" transform="translate(347.22 169.25) rotate(8.29)">o</text><text class="cls-6" transform="translate(373.93 173.19) rotate(10.37)">t</text><text/><text/><text class="cls-7" transform="translate(1592.15 108.69) rotate(-46.19)">D</text><text class="cls-7" transform="matrix(0.82, -0.57, 0.57, 0.82, 1613.33, 87.36)">r</text><text class="cls-7" transform="translate(1627.63 77.29) rotate(-28.33)">-</text><text class="cls-7" transform="matrix(0.94, -0.35, 0.35, 0.94, 1641.51, 69.26)">B</text><text class="cls-7" transform="matrix(0.98, -0.2, 0.2, 0.98, 1668.59, 59.35)">u</text><text class="cls-7" transform="translate(1695.42 54.04) rotate(-6.44)">t</text><text class="cls-7" transform="matrix(1, -0.07, 0.07, 1, 1712.76, 52.06)">t</text><text class="cls-7" transform="translate(1730.7 50.74) rotate(-2.23)">-</text><text class="cls-7" transform="translate(1747.42 49.98) rotate(0.14)">a</text><text class="cls-7" transform="translate(1773.68 50.12) rotate(2.26)">-</text><text class="cls-7" transform="translate(1790.45 50.72) rotate(4.24)">L</text><text class="cls-7" transform="translate(1814.4 52.44) rotate(6.59)">o</text><text class="cls-7" transform="matrix(0.99, 0.15, -0.15, 0.99, 1841.83, 55.68)">t</text></g></g></svg>