<svg xmlns="http://www.w3.org/2000/svg" viewBox="0 0 1931.01 5858.25"><defs><style>.cls-1,.cls-2{stroke:#ffc0ab;stroke-width:4px;}.cls-2,.cls-4{fill:none;}.cls-2{stroke-miterlimit:10;}.cls-3{fill:#fff;}.cls-4{stroke:#000;stroke-width:14px;}</style></defs><g id="Layer_2" data-name="Layer 2"><g id="left-sil"><path d="M7,197c325.15-78.89,555.67,44.2,696.49,351.74,21,39,124,154,163,193s42,65.71,2,91-46,10-56,38c0,0-14.16,36.8,18,77,8,10-21.08,42.31-4,85,10,25,31,23.62,32,37,3,40,49.52,124,48,168,8.37,136.75-186.25,135.1-198,272-17,168,59.27,202.65,105,373,97.63,307.5,32.51,996.07,128.5,1312.5l-935,124Z"/></g><g id="rap-sil"><g id="butt-neg"><path class="cls-1" d="M1929,3186.25l-6,2664c-312,2-1916,10-1916,0,0-87.75-4.66-2633.8,0-2637,223-153,641-144,945-27,381.74,146.92,658.5,482,827,463,149.2-16.83,129-238-44-216-115.34,14.66-436.6,409.3-637-243"/></g></g><g id="cover"><path d="M1119.62,3267.72c32,15.93,384.6,250.09,405.65,273,15.78,17.2-125,137.81-292.09-38.31C1148,3412.66,1095.51,3255.74,1119.62,3267.72Z"/></g><g id="right-sil"><path d="M1178,3230.25l752-32-3-3097c-158-32.61-517,85.95-534.5,290.5-10,117-93,122-208,209C1136.42,637.13,1043.1,738,1050,793.25c4,32,72,41,85.5,62.5,22.32,35.54-27.5,44.39-27.5,81.5,0,17,44,67-19.5,110.5-17,11.63-2,37-16.5,79.5-13.9,40.74-50.5,139.5-30.5,175.5,23.32,42,50,47,116,94s82.86,110.7,78,180c-8,114-71.74,174-111,327C1005,2282.42,1002,2828.25,1104,3199.25"/></g><g id="right-sil-line"><path class="cls-2" d="M1106,937.25c0,17,44,66-19.5,109.5-17,11.63-2,37-16.5,79.5-13.9,40.74-50.5,139.5-30.5,175.5,23.32,42,50,47,116,94s82.86,110.7,78,180c-8,114-71.74,174-111,327C1003,2281.42,999,2890.25,1117,3248.25"/></g><g id="left-eye-white"><path class="cls-3" d="M366.51,720.75s124-22,176-56,61-76,61-76,21,45,13,86c-4.8,24.61-29,60-86,67C487.54,747,366.51,720.75,366.51,720.75Z"/></g><g id="right-eye-white"><path class="cls-3" d="M1430.07,499.3s17.7,1.72,45.43,10.35,80.14,31.74,111.15,51.62,80.58,47.39,80.58,47.39a75.87,75.87,0,0,0-12.74,3.1c-5.6,2-17.67,2.22-25.14,1.13s-12.44-3.33-30.88-8.54-75.7-25.12-91-32.21-44.8-22.27-58.13-36.07S1430.07,499.3,1430.07,499.3Z"/></g><g id="left-head"><path class="cls-3" d="M4,185.25c47-28,406.63-18.22,490.56,56.54,63.61,37.45,60.54,76.08,57.23,82.58.27-1.34-5.48-12.57-16.16-16.6a30.27,30.27,0,0,1,2.37,23c-3.67,13.34-28.45,13.55-32.16,11.54,11.84-6.37-3.69-18.25-11.2-20.75a.3.3,0,0,0-.29.52c2.75,2,6.78,6.93,5.65,17.69-1.63,16.95-29.69,16.49-33.42,14.55,2.51-2,11.79-10.31.42-15.55-3-1.3-7.84-3.11-7.39-1.6,2,.88,5.08,3.68,4.39,12.6-.64,9.92-23.3,16.29-27.24,15.32,2.14-2.1,7.33-8.59-5.76-12.32-7-2,0,2-2,11-3.31,16.18-28.38,15.68-33.46,12.64,7.17-3,9.49-19.74-4.6-17.67.6.53,5.08,9.92,1.06,18.53-8,13.75-18.22,12.49-27,13,2.16-1.91,4-12,0-17-4.56-5.83-11-4.89-10.48-3.19,6.48,20.19-8.82,34.46-31.52,33.19,0,0,4.7-5.52,4-11-.93-7.28-8-12-9-10s7,21-20,30c0,0,2-15-12-18-3.92-.84,7.75,19.59-8,28-15,8-26-1-25-1,16.28,0,6-19-4-21-3.49-.7,5,4,1,15-2.73,7.51-19.8,17.38-35,13,12.86-4.91,2-19-9-14,0,0,6.89,5.16,1.28,13-3.41,4.75-8.35,9-20.28,13,1.87-.63,3.39-7.95-1-13-2.65-3.06-7-5-14-6-2.21-.32-2,11,8,11,1.73,0-10,7.82-21,6-6-1-13-5-18-10-1.55-1.55,0,13,20,16,4.33.65-15,9-28,8-26.23-2-24.31-22.5-26-18-6,16,11,17,11,17-29,9-36-5-40-12-1.06-1.87-5,6,0,11s13.28,5.67,13,6c-6,7-20.14,11.62-30,9-15-4-13.29-16.87-14-16-9,11,6.2,15.93,6,16-12,4-20.94,2.95-30-11.51C20.27,462,6.2,469,4,469.25,3.06,469.33,4.41,185,4,185.25Z"/></g><g id="right-head"><path class="cls-3" d="M1930,74.75l-74-12c-39.37-6.39-172.37-20.83-260,51-105.87,86.78-118,117-118,117s149.28,107.9,246.7,140.92c85.56,29,205.3,115.08,205.3,115.08Z"/></g><g id="line-cover"><polyline class="cls-4" points="1923.01 3198.25 1923.01 5850.25 7.01 5851.25 11.01 3217.25"/></g><g id="Type"><text/><text/><path d="M48.66,143.56l8.56-20.36a26.3,26.3,0,0,1,1.29-2.82l-.18-.26c-.94.17-2,.33-3.09.47l-9,1.15-.49-3.81,19.7-2.52.08.18-8,19.81a30.4,30.4,0,0,1-1.42,3.32l.16.24c.78-.15,1.73-.29,2.86-.44l9.59-1.23.49,3.83-20.45,2.62Z"/><path d="M90.85,139.1l-5.39.5a10.8,10.8,0,0,1,0-2.2,25.79,25.79,0,0,1,.53-2.85l-.4-.13a9.12,9.12,0,0,1-2.92,4.43,9.21,9.21,0,0,1-5,1.82,7.3,7.3,0,0,1-5.22-1.11,5.9,5.9,0,0,1-2.17-4.46l-1.26-13.54,5.37-.5,1.14,12.24a3.93,3.93,0,0,0,1.22,2.77,3.83,3.83,0,0,0,2.92.71,5.11,5.11,0,0,0,2.84-1.12A5.46,5.46,0,0,0,84.2,133a9.93,9.93,0,0,0,.31-3.82l-.84-9,5.38-.5Z"/><path d="M96.36,136.59q-2.85-2.42-3.15-7.41l0-.24c-.19-3.27.56-5.81,2.27-7.61s4.32-2.8,7.82-3c3.21-.2,5.72.33,7.52,1.56a8,8,0,0,1,3.26,5.79l-5.34.93a6.08,6.08,0,0,0-1.64-3.8,4.61,4.61,0,0,0-3.61-1.07,4.72,4.72,0,0,0-3.74,1.8,7.11,7.11,0,0,0-1,4.74l.06.91a7.41,7.41,0,0,0,1.6,4.7,4.74,4.74,0,0,0,4,1.38,4.49,4.49,0,0,0,4.7-5l5.49.28a7.57,7.57,0,0,1-2.72,5.79q-2.52,2.06-7.28,2.34Q99.23,139,96.36,136.59Z"/><path d="M117.05,111.54l5.4-.16.24,8.24c0,1.22,0,2.29,0,3.19s-.2,1.92-.4,3l.3.12,7.44-8.31,5.9-.17-6.61,7.36L136.4,137l-5.62.17-5.23-9.21L123,130.63l.2,6.72-5.4.16Z"/><path d="M136.55,125.08l11.86-.08,0,3.77-11.85.07Z"/><path d="M152.26,110.92l13.57.29a9,9,0,0,1,5.76,1.74,5.79,5.79,0,0,1,1.84,4.8v.09a5.8,5.8,0,0,1-1.2,3.68,5.31,5.31,0,0,1-3.3,1.75v.34a6.25,6.25,0,0,1,3.85,2.14A6.43,6.43,0,0,1,174,130v.07a6.84,6.84,0,0,1-2.2,5.38q-2.13,1.8-6.23,1.71l-13.87-.3Zm16,18.5v-.08c.06-2.7-1.35-4.09-4.22-4.15l-6.64-.15-.18,8.28,6.64.14C166.75,133.52,168.21,132.18,168.27,129.42Zm-.31-11v-.07q.07-3.41-3.84-3.5l-6.47-.14-.15,7,6.47.14Q167.89,121.9,168,118.42Z"/><path d="M196.41,138.67l-5.41-.31a10.55,10.55,0,0,1,.36-2.18,25.42,25.42,0,0,1,.95-2.73l-.38-.19a9.11,9.11,0,0,1-3.55,3.94,9.2,9.2,0,0,1-5.2,1.05,7.36,7.36,0,0,1-5-1.88,5.93,5.93,0,0,1-1.48-4.74l.8-13.58,5.39.32-.72,12.28a3.87,3.87,0,0,0,.78,2.91,3.8,3.8,0,0,0,2.79,1.14,5,5,0,0,0,3-.68,5.39,5.39,0,0,0,2-2.34,10,10,0,0,0,.88-3.73l.53-9,5.39.32Z"/><path d="M202.28,137q-2.5-2.77-2.11-7.77l0-.24q.38-4.91,3.28-7.23t8.16-1.92q4.81.38,7.24,2.58a8,8,0,0,1,2.43,6.18l-5.41.19a6.09,6.09,0,0,0-1.11-4,4.64,4.64,0,0,0-3.43-1.56,4.72,4.72,0,0,0-3.95,1.27,7.13,7.13,0,0,0-1.68,4.56l-.07.91a7.39,7.39,0,0,0,.95,4.87,4.72,4.72,0,0,0,3.76,1.91,5,5,0,0,0,3.64-.9,5.13,5.13,0,0,0,1.7-3.39l5.39,1a7.54,7.54,0,0,1-3.48,5.36c-1.85,1.13-4.37,1.57-7.54,1.32Q204.79,139.78,202.28,137Z"/><path d="M225.86,114.94l5.38.48-.74,8.21c-.11,1.22-.25,2.27-.41,3.16a26.58,26.58,0,0,1-.76,3l.29.16,8.37-7.37,5.88.53-7.44,6.52,5.62,12.88-5.6-.51-4.1-9.76-2.84,2.39-.6,6.69-5.38-.48Z"/><path d="M243.57,130.65l11.8,1.16-.37,3.75-11.8-1.16Z"/><path d="M255,143.74l11.75-24.87,6.59.7,6.29,26.79-5.72-.61-1.16-5.2-10.15-1.07-2.23,4.83ZM272.2,137l-1.41-6.87c-.46-2.08-.84-4.26-1.17-6.56l-.39,0q-1.07,3-2.47,6.2l-2.84,6.39Z"/><path d="M281.85,134.63,293.63,136l-.42,3.74-11.79-1.34Z"/><path d="M295.57,148.2l3.1-25.79,5.44.65-2.62,21.79,12.78,1.54-.48,4Z"/><path d="M318.1,148.79q-2.4-2.92-1.78-7.78l0-.22c.42-3.25,1.64-5.62,3.68-7.1s4.79-2,8.26-1.57,6,1.64,7.58,3.59,2.19,4.55,1.77,7.81l0,.22c-.42,3.24-1.64,5.6-3.68,7.07s-4.78,2-8.24,1.56S319.69,150.73,318.1,148.79Zm12.08-.9a7.26,7.26,0,0,0,1.91-4.54l.11-.89a7.26,7.26,0,0,0-.7-4.87,5.52,5.52,0,0,0-7.71-1,7.31,7.31,0,0,0-1.91,4.54l-.11.89a7.3,7.3,0,0,0,.7,4.88,4.76,4.76,0,0,0,3.66,2.07A4.7,4.7,0,0,0,330.18,147.89Z"/><path d="M342.53,153.09a5.69,5.69,0,0,1-1-4.54l1.42-10.5-3.09-.42.47-3.48,3.09.42.58-4.28,5.54-.66-.77,5.67,6.4.86-.47,3.48-6.4-.87-1.3,9.62a3,3,0,0,0,.4,2.28,3.08,3.08,0,0,0,2.08,1,9.3,9.3,0,0,0,3.62-.28l-.77,3.47a9.94,9.94,0,0,1-2.49.42,14.16,14.16,0,0,1-2.89-.12A6.71,6.71,0,0,1,342.53,153.09Z"/><path d="M1635.93,27.59l10-4.31q11.19-4.83,16.33,7.07l0,.07q5.13,11.86-6.06,16.71l-10,4.31Zm22.43,12.21q.72-2.56-1-6.56l-.53-1.25q-1.74-4-4.09-5.25a6.25,6.25,0,0,0-5.58.15l-4.68,2,7.29,16.87,4.68-2A6.21,6.21,0,0,0,1658.36,39.8Z"/><path d="M1664,23.12l5.15-1.67a7.89,7.89,0,0,1,.46,2,25.35,25.35,0,0,1,.09,3.06l.39.05a13.57,13.57,0,0,1,1-3.73,6.8,6.8,0,0,1,1.9-2.47,12.35,12.35,0,0,1,3.29-1.86l2,4.07-2.47,1a7.31,7.31,0,0,0-2.88,1.88,4.28,4.28,0,0,0-1,2.72,11.86,11.86,0,0,0,.72,4.06l2.51,7.74L1670,41.65Z"/><path d="M1680.91,25.62l11.49-2.9.93,3.65-11.5,2.9Z"/><path d="M1693.87,8l13.4-2.19q3.8-.61,6,.66a5.79,5.79,0,0,1,2.69,4.38l0,.09a5.79,5.79,0,0,1-.51,3.84,5.29,5.29,0,0,1-2.93,2.32l.06.33a6.31,6.31,0,0,1,4.18,1.41,6.55,6.55,0,0,1,2,4v.08a6.86,6.86,0,0,1-1.19,5.69q-1.75,2.16-5.81,2.81L1698,33.6Zm16.81,4.52,0-.08c-.36-2.24-1.83-3.16-4.41-2.74l-6.39,1,1.12,6.87,6.39-1Q1711.24,15.9,1710.68,12.48ZM1713,23.23v-.08c-.44-2.67-2.07-3.78-4.9-3.31l-6.56,1.06,1.33,8.17,6.56-1.07C1712.24,27.54,1713.44,26,1713,23.23Z"/><path d="M1742.26,27.88l-5.39.53a10.81,10.81,0,0,1,0-2.2,25.88,25.88,0,0,1,.51-2.85l-.4-.13a9.13,9.13,0,0,1-2.89,4.44,9.23,9.23,0,0,1-5,1.85,7.32,7.32,0,0,1-5.22-1.08,6,6,0,0,1-2.2-4.46l-1.32-13.53,5.37-.53,1.2,12.24a3.89,3.89,0,0,0,1.23,2.76,3.81,3.81,0,0,0,2.93.7,5,5,0,0,0,2.82-1.14,5.27,5.27,0,0,0,1.65-2.63,10,10,0,0,0,.29-3.82L1735,9l5.37-.53Z"/><path d="M1749.11,26.48a5.68,5.68,0,0,1-1.83-4.27l-.66-10.57-3.11.19-.21-3.5,3.11-.19-.27-4.32,5.3-1.72.36,5.7,5-.31L1757,11l-5,.31.61,9.69a3,3,0,0,0,.84,2.16,3.06,3.06,0,0,0,2.22.55,9.25,9.25,0,0,0,3.49-1l-.07,3.55a9.76,9.76,0,0,1-2.35.9,14.7,14.7,0,0,1-2.87.45A6.71,6.71,0,0,1,1749.11,26.48Z"/><path d="M1764,25.67a5.65,5.65,0,0,1-1.72-4.3l-.41-10.59-3.12.12-.13-3.5,3.11-.12L1761.51,3l5.34-1.6.23,5.71,6.45-.26.13,3.51-6.45.25.38,9.7a3,3,0,0,0,.79,2.18,3.11,3.11,0,0,0,2.21.6,9.4,9.4,0,0,0,3.51-.9L1774,25.7a10.31,10.31,0,0,1-2.38.85,15.52,15.52,0,0,1-2.87.38A6.72,6.72,0,0,1,1764,25.67Z"/><path d="M1775,14.34l11.86-.24.07,3.77-11.85.24Z"/><path d="M1787.85,26,1797,0h6.62l9,26h-5.76L1805.17,21l-10.21,0-1.71,5Zm16.4-8.48-2.12-6.69q-1-3-1.84-6.4h-.39c-.5,2-1.11,4.17-1.82,6.41l-2.16,6.66Z"/><path d="M1813.65,14.16l11.85.27-.08,3.77-11.85-.27Z"/><path d="M1828.47,26.44,1829.56.49l5.47.22-.92,21.94,12.87.53-.17,4Z"/><path d="M1850.9,25.32c-1.71-1.84-2.45-4.4-2.24-7.65l0-.23c.22-3.27,1.3-5.7,3.24-7.31s4.66-2.29,8.16-2.06,6.07,1.28,7.78,3.13,2.46,4.41,2.24,7.68l0,.22c-.21,3.26-1.3,5.69-3.24,7.29s-4.65,2.28-8.13,2.05S1852.61,27.16,1850.9,25.32Zm12-1.62a7.29,7.29,0,0,0,1.64-4.65l.06-.89a7.36,7.36,0,0,0-1-4.83,5.54,5.54,0,0,0-7.76-.52,7.29,7.29,0,0,0-1.63,4.65l-.06.89a7.3,7.3,0,0,0,1,4.83,5.53,5.53,0,0,0,7.75.52Z"/><path d="M1875.43,28.26a5.7,5.7,0,0,1-1.14-4.5l1-10.55-3.1-.29.33-3.49,3.1.29.41-4.3,5.5-.88-.53,5.69,6.42.61-.33,3.49-6.43-.61-.91,9.66a3,3,0,0,0,.5,2.27,3,3,0,0,0,2.11.89,9.21,9.21,0,0,0,3.6-.43l-.63,3.5a9.94,9.94,0,0,1-2.46.53,14.8,14.8,0,0,1-2.9,0A6.71,6.71,0,0,1,1875.43,28.26Z"/></g></g></svg>