<svg xmlns="http://www.w3.org/2000/svg" viewBox="0 0 1928.07 4975.26"><defs><style>.cls-1,.cls-2{stroke:#ffc0ab;stroke-width:4px;}.cls-2,.cls-4{fill:none;}.cls-2{stroke-miterlimit:10;}.cls-3{fill:#fff;}.cls-4{stroke:#000;stroke-width:14px;}.cls-5{font-size:38px;font-family:RightGrotesk-WideMedium, Right Grotesk;font-weight:500;}</style></defs><g id="Layer_2" data-name="Layer 2"><g id="left-sil"><path d="M4.07,203c325.15-78.89,555.68,44.19,696.49,351.74,21,39,124,154,163,193s42,65.72,2,91-46,10-56,38c0,0-14.16,36.8,18,77,8,10-21.07,42.31-4,85,10,25,31,23.62,32,37,3,40,49.52,124,48,168,8.37,136.76-186.25,135.11-198,272-17,168,59.26,202.65,105,373,97.63,307.51,32.51,996.07,128.5,1312.5l-935,124Z"/></g><g id="rap-sil"><g id="butt-neg"><path class="cls-1" d="M1926.07,3192.25v1776c-312,2-1922,7-1922-3,0-87.75-4.66-1742.8,0-1746,223-153,641-144,945-27,381.75,146.92,658.5,482,827,463,149.2-16.82,129-238-44-216-115.34,14.67-436.6,409.31-637-243"/></g></g><g id="cover"><path d="M1116.68,3273.73c32,15.93,384.6,250.08,405.65,273,15.79,17.2-124.95,137.82-292.09-38.3C1145,3418.66,1092.57,3261.75,1116.68,3273.73Z"/></g><g id="right-sil"><path d="M1175.07,3236.25l752-32-3-3097c-158-32.6-517,85.95-534.5,290.5-10,117-93,122-208,209-48.09,36.39-141.4,137.25-134.5,192.5,4,32,72,41,85.5,62.5,22.32,35.55-27.5,44.39-27.5,81.5,0,17,44,67-19.5,110.5-17,11.64-2,37-16.5,79.5-13.9,40.74-50.5,139.5-30.5,175.5,23.32,42,50,47,116,94s82.87,110.71,78,180c-8,114-71.74,174.06-111,327-119.52,378.67-122.5,924.5-20.5,1295.5"/></g><g id="right-sil-line"><path class="cls-2" d="M1103.07,943.25c0,17,44,66-19.5,109.5-17,11.64-2,37-16.5,79.5-13.9,40.74-50.5,139.5-30.5,175.5,23.32,42,50,47,116,94s82.87,110.71,78,180c-8,114-71.74,174.06-111,327-119.52,378.67-123.5,987.5-5.5,1345.5"/></g><g id="left-eye-white"><path class="cls-3" d="M363.57,726.75s124-22,176-56,61-76,61-76,21,45,13,86c-4.8,24.62-29,60-86,67C484.61,753,363.57,726.75,363.57,726.75Z"/></g><g id="right-eye-white"><path class="cls-3" d="M1427.13,505.31s17.71,1.72,45.43,10.35,80.14,31.74,111.15,51.62,80.58,47.39,80.58,47.39a75,75,0,0,0-12.74,3.1c-5.59,2.05-17.67,2.22-25.13,1.13s-12.45-3.33-30.89-8.54-75.7-25.13-91-32.21-44.81-22.28-58.14-36.07S1427.13,505.31,1427.13,505.31Z"/></g><g id="left-head"><path class="cls-3" d="M1.07,191.25c47-28,406.63-18.22,490.56,56.55,63.61,37.44,60.54,76.07,57.23,82.58.28-1.35-5.48-12.57-16.16-16.61a30.29,30.29,0,0,1,2.37,23c-3.67,13.35-28.45,13.55-32.16,11.55,11.84-6.37-3.69-18.25-11.2-20.75a.29.29,0,0,0-.28.51c2.74,2.05,6.78,6.94,5.64,17.69-1.63,16.95-29.69,16.5-33.42,14.56,2.51-2,11.79-10.31.42-15.56-3-1.3-7.84-3.1-7.39-1.6,2,.88,5.08,3.68,4.39,12.6-.64,9.93-23.3,16.3-27.24,15.33,2.14-2.11,7.33-8.59-5.76-12.33-7-2,0,2-2,11-3.31,16.19-28.38,15.69-33.45,12.65,7.17-3,9.48-19.74-4.6-17.67.59.52,5.07,9.91,1.05,18.52-8,13.76-18.22,12.5-27,13,2.16-1.9,4-12,0-17-4.56-5.82-11-4.88-10.48-3.18,6.48,20.18-8.81,34.45-31.52,33.18,0,0,4.7-5.52,4-11-.93-7.27-8-12-9-10s7,21-20,30c0,0,2-15-12-18-3.91-.84,7.76,19.6-8,28-15,8-26-1-25-1,16.28,0,6-19-4-21-3.48-.69,5,4,1,15-2.73,7.52-19.8,17.38-35,13,12.86-4.9,2-19-9-14,0,0,6.89,5.17,1.28,13-3.41,4.75-8.34,9-20.28,13,1.87-.62,3.39-7.95-1-13-2.65-3.05-7-5-14-6-2.21-.31-2,11,8,11,1.73,0-10,7.83-21,6-6-1-13-5-18-10-1.54-1.54,0,13,20,16,4.33.65-15,9-28,8-26.23-2-24.31-22.49-26-18-6,16,11,17,11,17-29,9-36-5-40-12-1.06-1.86-5,6,0,11s13.28,5.68,13,6c-6,7-20.14,11.63-30,9-15-4-13.29-16.86-14-16-9,11,6.2,15.94,6,16-12,4-20.93,3-30-11.5-2.75,8.22-16.82,15.3-19,15.5C.12,475.34,1.47,191,1.07,191.25Z"/></g><g id="right-head"><path class="cls-3" d="M1927.07,80.75l-74-12c-39.36-6.38-172.37-20.83-260,51-105.87,86.78-118,117-118,117s149.28,107.91,246.7,140.92c85.56,29,205.3,115.08,205.3,115.08Z"/></g><g id="line-cover"><polyline class="cls-4" points="1920.07 3204.25 1919.07 4968.25 8.07 4965.75 8.07 3223.25"/></g><g id="Type"><text/><text/><text class="cls-5" transform="translate(45.42 149.79) rotate(-7.29)">Z</text><text class="cls-5" transform="translate(66.17 147.12) rotate(-5.31)">u</text><text class="cls-5" transform="translate(89.57 144.95) rotate(-3.42)">c</text><text class="cls-5" transform="matrix(1, -0.03, 0.03, 1, 113.02, 143.57)">k</text><text class="cls-5" transform="translate(132.46 143.02) rotate(-0.37)">-</text><text class="cls-5" transform="translate(146.65 142.85) rotate(1.26)">B</text><text class="cls-5" transform="translate(171.67 143.4) rotate(3.36)">u</text><text class="cls-5" transform="translate(195.2 144.81) rotate(4.43)">c</text><text class="cls-5" transform="translate(218.75 146.65) rotate(5.15)">k</text><text class="cls-5" transform="translate(238.21 148.41) rotate(5.6)">-</text><text class="cls-5" transform="translate(251.83 149.72) rotate(6.07)">A</text><text class="cls-5" transform="translate(276.31 152.34) rotate(6.49)">-</text><text class="cls-5" transform="matrix(0.99, 0.12, -0.12, 0.99, 290.56, 153.96)">L</text><text class="cls-5" transform="translate(310.9 156.39) rotate(7.29)">o</text><text class="cls-5" transform="translate(334.22 159.38) rotate(7.71)">t</text><text class="cls-5" transform="translate(1641.37 58.28) rotate(-23.37)">D</text><text class="cls-5" transform="matrix(0.95, -0.31, 0.31, 0.95, 1665.34, 48.23)">r</text><text class="cls-5" transform="translate(1679.67 43.5) rotate(-14.16)">-</text><text class="cls-5" transform="matrix(0.99, -0.16, 0.16, 0.99, 1693.04, 39.94)">B</text><text class="cls-5" transform="translate(1717.59 36.01) rotate(-5.58)">u</text><text class="cls-5" transform="matrix(1, -0.06, 0.06, 1, 1740.95, 33.82)">t</text><text class="cls-5" transform="matrix(1, -0.04, 0.04, 1, 1755.77, 32.9)">t</text><text class="cls-5" transform="translate(1771.04 32.3) rotate(-1.15)">-</text><text class="cls-5" transform="translate(1784.67 31.96) rotate(0.12)">A</text><text class="cls-5" transform="translate(1809.18 32.07) rotate(1.31)">-</text><text class="cls-5" transform="translate(1823.44 32.36) rotate(2.39)">L</text><text class="cls-5" transform="translate(1843.81 33.18) rotate(3.84)">o</text><text class="cls-5" transform="translate(1867.13 34.77) rotate(5.41)">t</text></g></g></svg>