<svg xmlns="http://www.w3.org/2000/svg" viewBox="0 0 1928.07 5355.63"><defs><style>.cls-1,.cls-2{stroke:#ffc0ab;stroke-width:4px;}.cls-2,.cls-4{fill:none;}.cls-2{stroke-miterlimit:10;}.cls-3{fill:#fff;}.cls-4{stroke:#000;stroke-width:14px;}</style></defs><g id="Layer_2" data-name="Layer 2"><g id="left-sil"><path d="M4.07,583.39c325.15-78.89,555.68,44.2,696.49,351.74,21,39,124,154,163,193s42,65.71,2,91-46,10-56,38c0,0-14.16,36.8,18,77,8,10-21.07,42.31-4,85,10,25,31,23.62,32,37,3,40,49.52,124,48,168,8.37,136.75-186.25,135.1-198,272-17,168,59.26,202.65,105,373,97.63,307.5,32.51,996.07,128.5,1312.5l-935,124Z"/></g><g id="rap-sil"><g id="butt-neg"><path class="cls-1" d="M1926.07,3572.62v1776c-312,2-1922,7-1922-3,0-87.75-4.66-1742.8,0-1746,223-153,641-144,945-27,381.75,146.92,658.5,482,827,463,149.2-16.83,129-238-44-216-115.34,14.67-436.6,409.3-637-243"/></g></g><g id="cover"><path d="M1116.68,3654.1c32,15.92,384.6,250.08,405.65,273,15.79,17.2-124.95,137.82-292.09-38.3C1145,3799,1092.57,3642.11,1116.68,3654.1Z"/></g><g id="right-sil"><path d="M1175.07,3616.62l752-32-3-3097c-158-32.61-517,86-534.5,290.5-10,117-93,122-208,209-48.09,36.38-141.4,137.25-134.5,192.5,4,32,72,41,85.5,62.5,22.32,35.55-27.5,44.39-27.5,81.5,0,17,44,67-19.5,110.5-17,11.63-2,37-16.5,79.5-13.9,40.74-50.5,139.5-30.5,175.5,23.32,42,50,47,116,94s82.87,110.71,78,180c-8,114-71.74,174.06-111,327-119.52,378.67-122.5,924.5-20.5,1295.5"/></g><g id="right-sil-line"><path class="cls-2" d="M1103.07,1323.62c0,17,44,66-19.5,109.5-17,11.63-2,37-16.5,79.5-13.9,40.74-50.5,139.5-30.5,175.5,23.32,42,50,47,116,94s82.87,110.71,78,180c-8,114-71.74,174.06-111,327-119.52,378.67-123.5,987.5-5.5,1345.5"/></g><g id="left-eye-white"><path class="cls-3" d="M363.57,1107.12s124-22,176-56,61-76,61-76,21,45,13,86c-4.8,24.61-29,60-86,67C484.61,1133.39,363.57,1107.12,363.57,1107.12Z"/></g><g id="right-eye-white"><path class="cls-3" d="M1427.13,885.68s17.71,1.71,45.43,10.34,80.14,31.74,111.15,51.63S1664.29,995,1664.29,995a76.1,76.1,0,0,0-12.74,3.1c-5.59,2.06-17.67,2.22-25.13,1.13s-12.45-3.32-30.89-8.53-75.7-25.13-91-32.22-44.81-22.27-58.14-36.07S1427.13,885.68,1427.13,885.68Z"/></g><g id="left-head"><path class="cls-3" d="M1.07,571.62c47-28,406.63-18.22,490.56,56.54,63.61,37.45,60.54,76.08,57.23,82.59.28-1.35-5.48-12.58-16.16-16.61a30.27,30.27,0,0,1,2.37,23c-3.67,13.34-28.45,13.55-32.16,11.55,11.84-6.38-3.69-18.26-11.2-20.75a.29.29,0,0,0-.28.51c2.74,2,6.78,6.94,5.64,17.69-1.63,17-29.69,16.5-33.42,14.55,2.51-2,11.79-10.3.42-15.55-3-1.3-7.84-3.1-7.39-1.6,2,.88,5.08,3.68,4.39,12.6-.64,9.93-23.3,16.29-27.24,15.32,2.14-2.1,7.33-8.58-5.76-12.32-7-2,0,2-2,11-3.31,16.18-28.38,15.68-33.45,12.64,7.17-3,9.48-19.74-4.6-17.66.59.52,5.07,9.91,1.05,18.52-8,13.75-18.22,12.49-27,13,2.16-1.91,4-12,0-17-4.56-5.82-11-4.89-10.48-3.19,6.48,20.19-8.81,34.46-31.52,33.19,0,0,4.7-5.52,4-11-.93-7.27-8-12-9-10s7,21-20,30c0,0,2-15-12-18-3.91-.84,7.76,19.6-8,28-15,8-26-1-25-1,16.28,0,6-19-4-21-3.48-.7,5,4,1,15-2.73,7.52-19.8,17.38-35,13,12.86-4.91,2-19-9-14,0,0,6.89,5.17,1.28,13-3.41,4.75-8.34,9-20.28,13,1.87-.63,3.39-8-1-13-2.65-3-7-5-14-6-2.21-.32-2,11,8,11,1.73,0-10,7.82-21,6-6-1-13-5-18-10-1.54-1.55,0,13,20,16,4.33.65-15,9-28,8-26.23-2-24.31-22.5-26-18-6,16,11,17,11,17-29,9-36-5-40-12-1.06-1.86-5,6,0,11s13.28,5.67,13,6c-6,7-20.14,11.63-30,9-15-4-13.29-16.87-14-16-9,11,6.2,15.93,6,16-12,4-20.93,3-30-11.5-2.75,8.22-16.82,15.29-19,15.5C.12,855.7,1.47,571.38,1.07,571.62Z"/></g><g id="right-head"><path class="cls-3" d="M1927.07,461.12l-74-12c-39.36-6.39-172.37-20.83-260,51-105.87,86.78-118,117-118,117S1624.35,725,1721.77,758c85.56,29,205.3,115.08,205.3,115.08Z"/></g><g id="line-cover"><polyline class="cls-4" points="1920.07 3584.62 1919.07 5348.62 8.07 5346.12 8.07 3603.62"/><text/></g><g id="Type"><text/><text/><path d="M45.72,529.93l8.57-20.36a26.48,26.48,0,0,1,1.28-2.82l-.18-.26c-.94.17-2,.33-3.08.47l-9,1.15-.48-3.81,19.69-2.52.08.18-8,19.81a28.57,28.57,0,0,1-1.42,3.32l.16.24c.78-.15,1.73-.29,2.86-.44l9.59-1.22.49,3.82L45.8,530.11Z"/><path d="M87.91,525.47l-5.39.5a10.14,10.14,0,0,1,0-2.2,25.85,25.85,0,0,1,.52-2.85l-.4-.13a8.44,8.44,0,0,1-7.9,6.25,7.33,7.33,0,0,1-5.22-1.11,5.94,5.94,0,0,1-2.17-4.46l-1.26-13.54,5.38-.5,1.13,12.25a4,4,0,0,0,1.22,2.76,3.81,3.81,0,0,0,2.93.71A5.08,5.08,0,0,0,79.61,522a5.35,5.35,0,0,0,1.65-2.62,10,10,0,0,0,.31-3.83l-.84-9,5.38-.5Z"/><path d="M93.43,523c-1.91-1.6-3-4.08-3.16-7.41l0-.24q-.28-4.9,2.27-7.61t7.83-3c3.21-.19,5.71.33,7.52,1.57a7.94,7.94,0,0,1,3.25,5.78l-5.34.93a6.13,6.13,0,0,0-1.63-3.8,4.65,4.65,0,0,0-3.62-1.07,4.72,4.72,0,0,0-3.74,1.8,7.18,7.18,0,0,0-1,4.75l.06.9a7.38,7.38,0,0,0,1.6,4.7,4.68,4.68,0,0,0,4,1.38,5,5,0,0,0,3.49-1.39,5.12,5.12,0,0,0,1.22-3.59l5.48.29a7.59,7.59,0,0,1-2.71,5.78q-2.53,2.06-7.29,2.34Q96.29,525.38,93.43,523Z"/><path d="M114.12,497.91l5.39-.15.24,8.23c0,1.22,0,2.29,0,3.19a25.77,25.77,0,0,1-.4,3l.3.12,7.45-8.31,5.89-.17-6.61,7.36,7.11,12.12-5.62.16-5.23-9.2L120.08,517l.19,6.71-5.4.16Z"/><path d="M133.61,511.45l11.86-.08,0,3.77-11.85.07Z"/><path d="M149.32,497.29l13.58.3a8.89,8.89,0,0,1,5.75,1.73,5.81,5.81,0,0,1,1.84,4.8v.09a5.77,5.77,0,0,1-1.19,3.68,5.32,5.32,0,0,1-3.31,1.75V510a6.22,6.22,0,0,1,3.85,2.14,6.43,6.43,0,0,1,1.23,4.28v.07a6.88,6.88,0,0,1-2.21,5.38c-1.42,1.2-3.49,1.77-6.23,1.71l-13.87-.3Zm16,18.5v-.07q.09-4.07-4.22-4.16l-6.64-.15-.18,8.28,6.64.14Q165.25,519.93,165.34,515.79Zm-.32-11v-.08q.07-3.41-3.84-3.5l-6.47-.14-.15,7,6.47.14Q164.95,508.27,165,504.8Z"/><path d="M193.47,525.05l-5.41-.32a10.35,10.35,0,0,1,.36-2.17,27,27,0,0,1,1-2.74l-.38-.19a9,9,0,0,1-3.55,3.94,9.2,9.2,0,0,1-5.2,1,7.33,7.33,0,0,1-5-1.88,6,6,0,0,1-1.48-4.74l.8-13.58,5.39.32L179.24,517a4,4,0,0,0,.79,2.92,3.84,3.84,0,0,0,2.78,1.14,5.08,5.08,0,0,0,3-.69,5.39,5.39,0,0,0,2-2.34,9.84,9.84,0,0,0,.88-3.73l.53-9,5.39.32Z"/><path d="M199.34,523.38c-1.66-1.86-2.37-4.45-2.11-7.78l0-.24c.25-3.27,1.35-5.68,3.28-7.23s4.66-2.19,8.16-1.91q4.81.36,7.24,2.58a7.9,7.9,0,0,1,2.43,6.17l-5.41.19a6.17,6.17,0,0,0-1.1-4,5.5,5.5,0,0,0-7.39-.29,7.13,7.13,0,0,0-1.67,4.56l-.07.91a7.44,7.44,0,0,0,.94,4.88,4.76,4.76,0,0,0,3.76,1.91,4.51,4.51,0,0,0,5.34-4.3l5.39,1a7.52,7.52,0,0,1-3.48,5.36q-2.78,1.69-7.53,1.33Q201.85,526.15,199.34,523.38Z"/><path d="M222.93,501.31l5.37.48-.74,8.21c-.11,1.22-.24,2.27-.41,3.17a28.6,28.6,0,0,1-.75,3l.28.16,8.38-7.37,5.87.53L233.49,516l5.62,12.88-5.6-.5-4.09-9.76L226.58,521l-.61,6.69-5.38-.49Z"/><path d="M240.63,517l11.8,1.15-.37,3.75-11.8-1.15Z"/><path d="M252.07,530.11l11.75-24.87,6.59.7,6.29,26.79-5.72-.61-1.16-5.19-10.15-1.08-2.23,4.84Zm17.19-6.73-1.41-6.87c-.45-2.08-.84-4.26-1.17-6.56l-.39,0c-.71,2-1.53,4-2.47,6.19L261,522.5Z"/><path d="M278.91,521l11.78,1.34-.42,3.74-11.78-1.34Z"/><path d="M292.64,534.57l3.1-25.79,5.43.65-2.62,21.8,12.79,1.53-.48,4Z"/><path d="M315.16,535.16c-1.6-1.94-2.19-4.54-1.77-7.78l0-.22q.63-4.87,3.68-7.1t8.26-1.56q5.19.66,7.59,3.59t1.77,7.8l0,.22c-.41,3.24-1.64,5.6-3.67,7.08s-4.79,2-8.25,1.55S316.76,537.1,315.16,535.16Zm12.09-.9a7.28,7.28,0,0,0,1.9-4.54l.12-.88a7.33,7.33,0,0,0-.71-4.88,5.52,5.52,0,0,0-7.71-1,7.4,7.4,0,0,0-1.91,4.55l-.11.88a7.35,7.35,0,0,0,.7,4.88,4.8,4.8,0,0,0,3.67,2.08A4.75,4.75,0,0,0,327.25,534.26Z"/><path d="M339.59,539.46a5.68,5.68,0,0,1-1-4.54l1.43-10.5L337,524l.47-3.47,3.09.41.58-4.28,5.53-.65-.76,5.66,6.4.87-.47,3.47-6.4-.87-1.31,9.62a3,3,0,0,0,.41,2.28,3,3,0,0,0,2.07,1,9.29,9.29,0,0,0,3.62-.28l-.77,3.47a9.94,9.94,0,0,1-2.48.42,14.23,14.23,0,0,1-2.9-.12A6.71,6.71,0,0,1,339.59,539.46Z"/><path d="M1633,414l10-4.31q11.19-4.83,16.33,7.07l0,.07q5.13,11.88-6.06,16.71l-10,4.31Zm22.43,12.21c.48-1.71.14-3.89-1-6.56l-.54-1.25q-1.74-4-4.09-5.25a6.22,6.22,0,0,0-5.57.15l-4.69,2,7.29,16.86,4.68-2A6.21,6.21,0,0,0,1655.42,426.17Z"/><path d="M1661.08,409.49l5.16-1.67a8.86,8.86,0,0,1,.46,2,28.21,28.21,0,0,1,.08,3.06l.39.05a13.57,13.57,0,0,1,1-3.73,7,7,0,0,1,1.9-2.47,12.51,12.51,0,0,1,3.29-1.86l2,4.08-2.46,1a7.46,7.46,0,0,0-2.89,1.88,4.28,4.28,0,0,0-1,2.72,11.82,11.82,0,0,0,.72,4.06l2.52,7.75L1667.1,428Z"/><path d="M1678,412l11.5-2.9.92,3.65-11.5,2.9Z"/><path d="M1690.93,394.33l13.4-2.18a8.9,8.9,0,0,1,6,.65,5.83,5.83,0,0,1,2.69,4.38v.09a5.79,5.79,0,0,1-.5,3.84,5.39,5.39,0,0,1-2.93,2.33l.05.33a6.23,6.23,0,0,1,4.18,1.4,6.49,6.49,0,0,1,2,4v.08a6.83,6.83,0,0,1-1.19,5.69q-1.75,2.16-5.81,2.82L1695.11,420Zm16.81,4.52v-.08c-.37-2.24-1.84-3.16-4.42-2.74l-6.39,1.05,1.12,6.86,6.39-1Q1708.3,402.27,1707.74,398.85Zm2.31,10.75v-.07c-.43-2.68-2.07-3.78-4.9-3.32l-6.56,1.07,1.33,8.16,6.56-1.06C1709.3,413.91,1710.5,412.32,1710.05,409.6Z"/><path d="M1739.33,414.26l-5.4.52a11.58,11.58,0,0,1,0-2.2,26.27,26.27,0,0,1,.52-2.85l-.41-.12a8.43,8.43,0,0,1-7.87,6.28,7.33,7.33,0,0,1-5.22-1.08,6,6,0,0,1-2.2-4.46l-1.32-13.53,5.38-.53,1.19,12.25a3.93,3.93,0,0,0,1.23,2.76,3.85,3.85,0,0,0,2.93.69,5,5,0,0,0,2.83-1.14,5.33,5.33,0,0,0,1.64-2.63,10,10,0,0,0,.29-3.82l-.88-9,5.37-.52Z"/><path d="M1746.17,412.85a5.68,5.68,0,0,1-1.83-4.27l-.65-10.57-3.11.19-.22-3.5,3.11-.19-.27-4.32,5.3-1.72.36,5.7,5-.31.22,3.5-5,.31.6,9.69a3,3,0,0,0,.84,2.16,3,3,0,0,0,2.23.55,9.35,9.35,0,0,0,3.49-1l-.08,3.55a9.6,9.6,0,0,1-2.35.9,14.7,14.7,0,0,1-2.87.45A6.73,6.73,0,0,1,1746.17,412.85Z"/><path d="M1761,412a5.64,5.64,0,0,1-1.73-4.3l-.41-10.59-3.12.12-.13-3.5,3.11-.12-.17-4.32,5.35-1.6.22,5.71,6.45-.25.14,3.5-6.46.25.38,9.7a3,3,0,0,0,.79,2.18,3,3,0,0,0,2.22.6,9.3,9.3,0,0,0,3.51-.9l-.16,3.55a10.4,10.4,0,0,1-2.37.85,15.74,15.74,0,0,1-2.88.38A6.68,6.68,0,0,1,1761,412Z"/><path d="M1772.07,400.71l11.85-.23.08,3.76-11.86.24Z"/><path d="M1784.91,412.33l9.11-26,6.62,0,9,26h-5.75l-1.7-5.05-10.2,0-1.72,5Zm16.4-8.48-2.12-6.69c-.66-2-1.28-4.15-1.84-6.4H1797q-.75,3.06-1.81,6.41l-2.17,6.66Z"/><path d="M1810.71,400.53l11.86.27-.09,3.77-11.85-.27Z"/><path d="M1825.54,412.81l1.08-25.95,5.47.23-.92,21.93,12.87.54-.17,4Z"/><path d="M1848,411.69q-2.57-2.76-2.23-7.65v-.22q.33-4.9,3.24-7.32c2-1.6,4.66-2.29,8.16-2.05s6.07,1.27,7.78,3.12,2.46,4.41,2.24,7.68v.23q-.33,4.88-3.24,7.28t-8.14,2.05Q1850.54,414.47,1848,411.69Zm12-1.62a7.35,7.35,0,0,0,1.63-4.65l.06-.89a7.3,7.3,0,0,0-1-4.83,5.54,5.54,0,0,0-7.76-.52,7.39,7.39,0,0,0-1.63,4.65l-.06.89a7.3,7.3,0,0,0,1,4.83,5.54,5.54,0,0,0,7.76.52Z"/><path d="M1872.49,414.63a5.7,5.7,0,0,1-1.14-4.5l1-10.54-3.1-.3.33-3.49,3.1.3.41-4.31,5.51-.88-.54,5.69,6.43.61-.33,3.49-6.43-.6-.92,9.66a3,3,0,0,0,.5,2.26,3,3,0,0,0,2.11.89,9.15,9.15,0,0,0,3.6-.42l-.63,3.5a10.33,10.33,0,0,1-2.46.52,14.8,14.8,0,0,1-2.9,0A6.71,6.71,0,0,1,1872.49,414.63Z"/></g></g></svg>