<svg xmlns="http://www.w3.org/2000/svg" viewBox="0 0 1941.36 6091.13"><defs><style>.cls-1{fill:#fff;}.cls-2{stroke:#000;stroke-width:2px;}</style></defs><g id="Layer_2" data-name="Layer 2"><g id="Layer_1-2" data-name="Layer 1"><g id="Layer_2-2" data-name="Layer 2"><g id="left-sil"><path d="M3.35,126.9c52.74-27.35,333.5-30.27,422.5,25.73,146.48,92.16,206.64,200.9,274,326,21,39,124,154,163,193s42,65.71,2,91-46,10-56,38c0,0-14.16,36.8,18,77,8,10-21.08,42.31-4,85,10,25,31,23.62,32,37,3,40,49.52,124,48,168-1.43,41.41-7.23,86.34-77,125-74,41-115.75,95.06-121,147-17,168,59.27,202.65,105,373,97.63,307.5,32.87,888.07,128.86,1204.5H3.35Z"/></g><g id="right-sil"><path d="M1923.35,31.73c-158-32.6-513,85.35-530.5,289.9-10,117-93,122-208,209-48.1,36.38-141.41,137.25-134.5,192.5,4,32,72,41,85.5,62.5,22.32,35.55-27.5,44.39-27.5,81.5,0,17,44,67-19.5,110.5-17,11.63-2,37-16.5,79.5-13.9,40.74-50.5,139.5-30.5,175.5,23.31,42,50,47,116,94s82.86,110.71,78,180c-8,114-71.74,174.06-111,327-119.53,378.67-112.33,818.64-20.59,1183.5h819.09Z"/></g><g id="rap-sil"><path d="M914.62,2915.89c2.92,19,50.38,259.11,155.73,343.92,139.26,113.08,300.32,190.87-55.76,359.54a14.39,14.39,0,0,0-4.17,3c-90.42,94.39,360.3,188.45,210.93,372.78-94,116-494.9,20.26-728,62.16-452,81.23-553.23,637.38-327,924.27,243.87,309.28,648.48,170.65,852,124.57,53-12,87.56-.73,104,13.13,72.4,61.05-145.69,365.89-334.12,618.28-60,80.34-117,155.37-160.61,215.53-50.27,69.28-82.85,118.84-82,134.06H5.35L3.28,2915.89Z"/><path class="cls-1" d="M644.35,3143.13c12.8-10.8,41-138-47-197-51,108-308,272-397,283C429.35,3260.13,556.35,3198.13,644.35,3143.13Z"/></g><g id="butt-neg"><path class="cls-2" d="M1081.35,2915.89h842.47l16.53,3174.24h-922c31.75-265.44,64.55-542.07,248-784.07,87.62-115.6,559.86-534.92,619.13-930.45,88.14-588.28-122.42-828.23-330.82-962.2C1351.83,3283,1141,3262.8,1081.35,2915.89Z"/></g><g id="left-eye-white"><path class="cls-1" d="M362.85,650.63s124-22,176-56,61-76,61-76,21,45,13,86c-4.8,24.61-29,60-86,67C483.88,676.9,362.85,650.63,362.85,650.63Z"/></g><g id="right-eye-white"><path class="cls-1" d="M1426.4,429.19s17.71,1.71,45.44,10.34S1552,471.27,1583,491.15s80.58,47.39,80.58,47.39a75.39,75.39,0,0,0-12.74,3.1c-5.6,2.05-17.67,2.22-25.14,1.13s-12.45-3.32-30.89-8.53-75.69-25.13-91-32.22-44.81-22.27-58.13-36S1426.4,429.19,1426.4,429.19Z"/></g><g id="left-head"><path class="cls-1" d="M.35,115.13c47-28,406.63-18.22,490.55,56.54,63.61,37.45,60.55,76.08,57.23,82.59.28-1.35-5.47-12.58-16.16-16.61a30.26,30.26,0,0,1,2.38,23C530.68,274,505.9,274.2,502.19,272.2c11.81-6.4-3.69-18.28-11.19-20.77a.28.28,0,0,0-.39.12.28.28,0,0,0,.11.39c2.75,2,6.78,6.93,5.65,17.69-1.63,16.95-29.69,16.5-33.42,14.55,2.51-2,11.79-10.31.42-15.55-3-1.3-7.84-3.1-7.4-1.6,2,.88,5.09,3.68,4.4,12.6-.65,9.92-23.3,16.29-27.25,15.32,2.15-2.1,7.33-8.58-5.75-12.32-7-2,0,2-2,11C422,309.81,397,309.31,391.89,306.27c7.17-3,9.48-19.74-4.6-17.66.6.52,5.07,9.91,1.06,18.52-8,13.75-18.22,12.49-27,13,2.16-1.91,4-12,0-17-4.56-5.82-11-4.89-10.49-3.19,6.49,20.19-8.81,34.46-31.51,33.19,0,0,4.7-5.52,4-11-.93-7.27-8-12-9-10s7,21-20,30c0,0,2-15-12-18-3.92-.84,7.75,19.6-8,28-15,8-26-1-25-1,16.28,0,6-19-4-21-3.49-.7,5,4,1,15-2.74,7.52-19.81,17.38-35,13,12.86-4.91,2-19-9-14,0,0,6.89,5.17,1.28,13-3.41,4.75-8.35,9-20.28,13,1.87-.63,3.39-7.95-1-13-2.65-3.05-7-5-14-6-2.22-.32-2,11,8,11,1.72,0-10,7.82-21,6-6-1-13-5-18-10-1.55-1.55,0,13,20,16,4.33.65-15,9-28,8-26.23-2-24.32-22.5-26-18-6,16,11,17,11,17-29,9-36-5-40-12-1.07-1.86-5,6,0,11s13.28,5.67,13,6c-6,7-20.15,11.63-30,9-15-4-13.29-16.87-14-16-9,11,6.19,15.93,6,16-12,4-20.94,3-30-11.5-2.74,8.22-16.81,15.29-19,15.5C-.61,399.21.75,114.89.35,115.13Z"/></g><g id="right-head"><path class="cls-1" d="M1925.85,17.63l-74-12c-39.37-6.39-172.37-20.83-260,51-105.87,86.78-118,117-118,117s149.28,107.9,246.69,140.92c85.57,29,205.31,115.08,205.31,115.08Z"/></g></g></g></g></svg>