<svg xmlns="http://www.w3.org/2000/svg" viewBox="0 0 1931.17 5354"><defs><style>.cls-1{fill:#fff;}.cls-2,.cls-4,.cls-5{fill:none;}.cls-2,.cls-3,.cls-4{stroke:#ffc0ab;}.cls-2,.cls-4{stroke-miterlimit:10;}.cls-2,.cls-5{stroke-width:5px;}.cls-3,.cls-4{stroke-width:4px;}.cls-5{stroke:#000;}</style></defs><g id="Layer_2" data-name="Layer 2"><g id="left-sil"><path d="M5.67,583.39c325.15-78.89,555.67,44.2,696.49,351.74,21,39,124,154,163,193s42,65.71,2,91-46,10-56,38c0,0-14.16,36.8,18,77,8,10-21.08,42.31-4,85,10,25,31,23.62,32,37,3,40,49.52,124,48,168,8.37,136.75-186.25,135.1-198,272-17,168,59.27,202.65,105,373,97.63,307.5,32.51,996.07,128.5,1312.5l-935,124Z"/></g><g id="left-sil-line"><line class="cls-1" x1="5.67" y1="3473.62" x2="5.67" y2="583.39"/><path class="cls-2" d="M832.17,1335.12c8,10-24.08,41.81-7,84.5,10,25,31,23.62,32,37,20.56,101.8,110.81,215.3-29,293-74,41-115.74,95.06-121,147-17,168,59.27,202.65,105,373,97.63,307.5,33,986.07,129,1302.5"/></g><g id="rap-sil"><g id="butt-neg"><path class="cls-3" d="M1927.67,3572.62v1776c-55,3-1922,7-1922-3,0-87.75-8.26-1742.4,0-1746,241-105,641-144,945-27,381.74,146.92,658.5,482,827,463,149.2-16.83,129-238-44-216-125.61,16-437,408-637-243"/></g></g><g id="cover"><path d="M1118.28,3654.1c32,15.92,384.6,250.08,405.65,273,15.78,17.2-125,137.82-292.09-38.3C1146.62,3799,1094.17,3642.11,1118.28,3654.1Z"/></g><g id="right-sil"><path d="M1176.67,3616.62l752-32-3-3097c-158-32.61-517,86-534.5,290.5-10,117-93,122-208,209-48.09,36.38-141.41,137.25-134.5,192.5,4,32,72,41,85.5,62.5,22.32,35.55-27.5,44.39-27.5,81.5,0,17,44,67-19.5,110.5-17,11.63-2,37-16.5,79.5-13.9,40.74-50.5,139.5-30.5,175.5,23.32,42,50,47,116,94s82.86,110.71,78,180c-8,114-71.74,174.06-111,327-119.52,378.67-122.5,924.5-20.5,1295.5"/></g><g id="right-sil-line"><path class="cls-4" d="M1104.67,1323.62c0,17,44,66-19.5,109.5-17,11.63-2,37-16.5,79.5-13.9,40.74-50.5,139.5-30.5,175.5,23.32,42,50,47,116,94s82.86,110.71,78,180c-8,114-71.74,174.06-111,327-119.52,378.67-123.5,987.5-5.5,1345.5"/></g><g id="left-eye-white"><path class="cls-1" d="M365.17,1107.12s124-22,176-56,61-76,61-76,21,45,13,86c-4.8,24.61-29,60-86,67C486.2,1133.39,365.17,1107.12,365.17,1107.12Z"/></g><g id="right-eye-white"><path class="cls-1" d="M1428.73,885.68s17.7,1.71,45.43,10.34,80.14,31.74,111.15,51.63S1665.89,995,1665.89,995a75.87,75.87,0,0,0-12.74,3.1c-5.6,2.06-17.67,2.22-25.14,1.13s-12.44-3.32-30.88-8.53-75.7-25.13-91-32.22-44.8-22.27-58.13-36.07S1428.73,885.68,1428.73,885.68Z"/></g><g id="left-head"><path class="cls-1" d="M2.67,571.62c47-28,406.63-18.22,490.56,56.54,63.61,37.45,60.54,76.08,57.23,82.59.27-1.35-5.48-12.58-16.16-16.61a30.27,30.27,0,0,1,2.37,23c-3.67,13.34-28.45,13.55-32.16,11.55,11.84-6.38-3.69-18.26-11.2-20.75a.3.3,0,0,0-.29.51c2.75,2,6.78,6.94,5.65,17.69-1.63,17-29.69,16.5-33.42,14.55,2.51-2,11.79-10.3.42-15.55-3-1.3-7.84-3.1-7.39-1.6,2,.88,5.08,3.68,4.39,12.6-.64,9.93-23.3,16.29-27.24,15.32,2.14-2.1,7.33-8.58-5.76-12.32-7-2,0,2-2,11-3.31,16.18-28.38,15.68-33.46,12.64,7.17-3,9.49-19.74-4.6-17.66.6.52,5.08,9.91,1.06,18.52-8,13.75-18.22,12.49-27,13,2.16-1.91,4-12,0-17-4.56-5.82-11-4.89-10.48-3.19,6.48,20.19-8.82,34.46-31.52,33.19,0,0,4.7-5.52,4-11-.93-7.27-8-12-9-10s7,21-20,30c0,0,2-15-12-18-3.92-.84,7.75,19.6-8,28-15,8-26-1-25-1,16.28,0,6-19-4-21-3.49-.7,5,4,1,15-2.73,7.52-19.8,17.38-35,13,12.86-4.91,2-19-9-14,0,0,6.89,5.17,1.28,13-3.41,4.75-8.35,9-20.28,13,1.87-.63,3.39-8-1-13-2.65-3-7-5-14-6-2.21-.32-2,11,8,11,1.73,0-10,7.82-21,6-6-1-13-5-18-10-1.55-1.55,0,13,20,16,4.33.65-15,9-28,8-26.23-2-24.31-22.5-26-18-6,16,11,17,11,17-29,9-36-5-40-12-1.06-1.86-5,6,0,11s13.28,5.67,13,6c-6,7-20.14,11.63-30,9-15-4-13.29-16.87-14-16-9,11,6.2,15.93,6,16-12,4-20.94,3-30-11.5-2.74,8.22-16.81,15.29-19,15.5C1.72,855.7,3.07,571.38,2.67,571.62Z"/></g><g id="right-head"><path class="cls-1" d="M1928.67,461.12l-74-12c-39.37-6.39-172.37-20.83-260,51-105.87,86.78-118,117-118,117S1626,725,1723.37,758c85.56,29,205.3,115.08,205.3,115.08Z"/></g><g id="line-cover"><polyline class="cls-5" points="1928.67 3576.62 1927.17 5348.12 5.17 5345.12 5.67 3599.62"/><text/></g><g id="Type"><path d="M55.3,527.08l11.3-22.94A28.49,28.49,0,0,1,68.28,501l-.19-.31q-1.65.19-3.6.33L54,501.7l-.3-4.44,22.94-1.56.08.21L66.1,518.25A33.63,33.63,0,0,1,64.22,522l.17.29c.91-.12,2-.22,3.34-.31l11.16-.76.31,4.46-23.82,1.61Z"/><path d="M104.44,524.54l-6.27.28a12.31,12.31,0,0,1,.16-2.55,30.31,30.31,0,0,1,.76-3.26l-.46-.17a9.77,9.77,0,0,1-9.48,6.79,8.45,8.45,0,0,1-6-1.57,6.88,6.88,0,0,1-2.27-5.28l-.71-15.73,6.25-.29L87.09,517a4.54,4.54,0,0,0,1.25,3.27,4.41,4.41,0,0,0,3.35,1A5.8,5.8,0,0,0,95,520.1a6.22,6.22,0,0,0,2.07-2.94,11.43,11.43,0,0,0,.56-4.4l-.47-10.48,6.25-.28Z"/><path d="M111,521.89q-3.21-2.91-3.37-8.71v-.27c-.1-3.8.87-6.7,2.92-8.72s5.1-3.08,9.17-3.18q5.58-.15,8.64,2.11a9.17,9.17,0,0,1,3.54,6.81l-6.21.87a7.1,7.1,0,0,0-1.75-4.45A5.38,5.38,0,0,0,119.8,505a5.48,5.48,0,0,0-4.4,1.94,8.31,8.31,0,0,0-1.38,5.45l0,1.06a8.66,8.66,0,0,0,1.67,5.5,5.49,5.49,0,0,0,4.56,1.75,5.85,5.85,0,0,0,4.09-1.47,5.93,5.93,0,0,0,1.55-4.11l6.33.54a8.76,8.76,0,0,1-3.36,6.59q-3,2.28-8.53,2.42Q114.22,524.8,111,521.89Z"/><path d="M135.61,493.66l6.25-.06.1,9.54c0,1.41,0,2.65-.11,3.69a31.48,31.48,0,0,1-.52,3.51l.34.15,8.8-9.46,6.83-.08-7.82,8.38,8,14.18-6.51.07-5.85-10.77-3,3.09.08,7.77-6.25.07Z"/><path d="M157.8,509.72h13.73v4.36H157.8Z"/><path d="M184.17,522.51a9.33,9.33,0,0,1-3.4-4.55l-.45.15a22.16,22.16,0,0,1,1.07,5.49l-6.32-.08.37-30.07,6.25.07-.08,6.13a20.51,20.51,0,0,1-.29,3.32,31.34,31.34,0,0,1-.88,3.54l.42.17a9.5,9.5,0,0,1,3.54-4.49,10.07,10.07,0,0,1,5.77-1.49c3.23,0,5.66,1,7.31,3s2.44,4.82,2.4,8.57v.54c-.05,3.75-.92,6.59-2.61,8.5s-4.15,2.85-7.37,2.81A10.15,10.15,0,0,1,184.17,522.51Zm7.83-4.09a8.56,8.56,0,0,0,1.57-5.48v-1a8.72,8.72,0,0,0-1.43-5.54,5.31,5.31,0,0,0-4.39-1.92,5.68,5.68,0,0,0-4.63,1.87,8.52,8.52,0,0,0-1.66,5.55v.78a8.43,8.43,0,0,0,1.53,5.56,5.68,5.68,0,0,0,4.59,2A5.35,5.35,0,0,0,192,518.42Z"/><path d="M226.38,524.52l-6.27-.17a11.64,11.64,0,0,1,.34-2.52,28,28,0,0,1,1-3.2l-.45-.2a10.53,10.53,0,0,1-4,4.68,10.75,10.75,0,0,1-6,1.41,8.52,8.52,0,0,1-5.85-2,6.86,6.86,0,0,1-1.88-5.43l.42-15.75,6.25.17-.38,14.24a4.58,4.58,0,0,0,1,3.35,4.45,4.45,0,0,0,3.27,1.22,5.87,5.87,0,0,0,3.41-.9,6.2,6.2,0,0,0,2.27-2.78,11.64,11.64,0,0,0,.88-4.35l.28-10.48L227,502Z"/><path d="M233.12,522.33q-3-3.12-2.76-8.92v-.28q.24-5.69,3.51-8.49t9.37-2.55q5.58.24,8.48,2.7a9.18,9.18,0,0,1,3.06,7l-6.25.45a7.11,7.11,0,0,0-1.44-4.57,6.35,6.35,0,0,0-8.56,0,8.29,8.29,0,0,0-1.76,5.34l0,1.05a8.62,8.62,0,0,0,1.29,5.61,5.52,5.52,0,0,0,4.43,2.06,5.81,5.81,0,0,0,4.17-1.19,5.87,5.87,0,0,0,1.83-4l6.28,1a8.73,8.73,0,0,1-3.81,6.34q-3.15,2.07-8.67,1.84Q236.13,525.44,233.12,522.33Z"/><path d="M259.61,495.85l6.24.36-.55,9.53c-.09,1.41-.21,2.64-.37,3.68a33,33,0,0,1-.76,3.46l.33.17,9.43-8.83,6.82.4-8.38,7.82,7,14.7-6.5-.39-5.09-11.14-3.2,2.87-.46,7.76-6.24-.36Z"/><path d="M280.68,513.41l13.69,1-.31,4.35-13.69-1Z"/><path d="M297.84,527.52a5.31,5.31,0,0,1-1.45-4.48V523a5.87,5.87,0,0,1,1.55-3.68,8.58,8.58,0,0,1,3.64-2.15,26.81,26.81,0,0,1,5.59-1l6.18-.57.11-1.26a3.48,3.48,0,0,0-.85-2.93,5.45,5.45,0,0,0-3.36-1.2q-5-.44-5.35,3.93a5.69,5.69,0,0,0,0,.64l-6.1-1.05q0-.2,0-.6a6.48,6.48,0,0,1,3.38-5.41q3.06-1.72,8.53-1.24t7.83,2.56a6.49,6.49,0,0,1,2.1,5.91l-.91,10.29a3.43,3.43,0,0,0,0,1.16.83.83,0,0,0,.4.55,2.68,2.68,0,0,0,.92.24l1.07.12-1.06,3.64a11.59,11.59,0,0,1-1.77,0,10,10,0,0,1-3-.65,3.15,3.15,0,0,1-1.56-1.32,3.73,3.73,0,0,1-.33-2.11,12.3,12.3,0,0,1,.48-2.3l-.41-.15a8.34,8.34,0,0,1-4,4.14,12.17,12.17,0,0,1-6.54,1A8,8,0,0,1,297.84,527.52Zm11.3-2.43a6.33,6.33,0,0,0,2.63-1.91,5.44,5.44,0,0,0,1.17-2.95l.1-1.05-4,.42a21.31,21.31,0,0,0-3.45.59,4.85,4.85,0,0,0-2,1,2.58,2.58,0,0,0-.8,1.73v0q-.19,2.29,3,2.58A7.41,7.41,0,0,0,309.14,525.09Z"/><path d="M323.38,516.94,337,518.41l-.46,4.33-13.65-1.46Z"/><path d="M342.68,502.71l6.2.75-3.63,29.86-6.2-.75Z"/><path d="M352.19,531.69q-2.71-3.44-1.9-9l0-.26q.81-5.62,4.4-8.15t9.59-1.64q6,.87,8.71,4.31t1.89,9.07l0,.25q-.83,5.61-4.4,8.12c-2.38,1.67-5.58,2.22-9.57,1.64S354,534,352.19,531.69Zm14-.8a8.48,8.48,0,0,0,2.3-5.22l.15-1a8.46,8.46,0,0,0-.72-5.66,6.4,6.4,0,0,0-8.91-1.3,8.48,8.48,0,0,0-2.3,5.22l-.15,1a8.5,8.5,0,0,0,.72,5.67,6.42,6.42,0,0,0,8.91,1.29Z"/><path d="M380.16,537.33a6.55,6.55,0,0,1-.86-5.3L381.51,520l-3.55-.65.73-4,3.55.65.9-4.92,6.44-.46-1.19,6.51,7.35,1.34-.73,4-7.35-1.35-2,11a3.43,3.43,0,0,0,.34,2.67,3.52,3.52,0,0,0,2.35,1.23,10.66,10.66,0,0,0,4.19-.12l-1.07,4a12,12,0,0,1-2.9.36,17.57,17.57,0,0,1-3.34-.3A7.82,7.82,0,0,1,380.16,537.33Z"/><text/><text/><path d="M1571.67,449.8l8.92-9.3q10-10.41,21.08.22l.06.06q11.05,10.61,1.06,21l-8.92,9.29Zm30.1,3c-.27-2.09-1.64-4.32-4.13-6.7l-1.15-1.11q-3.75-3.58-6.88-3.86c-2.09-.18-4.1.73-6,2.73l-4.19,4.36,15.7,15.06,4.18-4.36C1601.21,456.94,1602,454.9,1601.77,452.82Z"/><path d="M1601.87,431.41l5.25-3.69a10.34,10.34,0,0,1,1.21,2.09,35.18,35.18,0,0,1,1.17,3.44l.45-.08a16.08,16.08,0,0,1-.15-4.57,8.16,8.16,0,0,1,1.29-3.46,14.9,14.9,0,0,1,3.07-3.25l3.67,3.92-2.43,2a8.87,8.87,0,0,0-2.62,3.14,5.13,5.13,0,0,0-.19,3.43,14.1,14.1,0,0,0,2.23,4.34l5.54,7.89-5.23,3.68Z"/><path d="M1622.24,428.34l12.36-6.66,2.12,3.92-12.36,6.67Z"/><path d="M1633.21,403.72l15.1-5.55c2.84-1.05,5.21-1.24,7.09-.59a6.89,6.89,0,0,1,4.11,4.5l0,.1a6.84,6.84,0,0,1,.27,4.57,6.3,6.3,0,0,1-2.88,3.37l.14.37a7.45,7.45,0,0,1,5.17.69,7.67,7.67,0,0,1,3.2,4.19l0,.08c1,2.65,1,4.95-.1,6.88s-3.08,3.47-6.12,4.59l-15.43,5.67Zm20.56,1.47,0-.08q-1.4-3.8-5.74-2.19l-7.2,2.65,2.85,7.73,7.19-2.65C1653.74,409.58,1654.72,407.77,1653.77,405.19Zm5.11,12,0-.08q-1.66-4.51-6.44-2.75l-7.39,2.71,3.39,9.2,7.38-2.72Q1660.58,421.78,1658.88,417.17Z"/><path d="M1693.91,418.27l-6.28,1.31a11.61,11.61,0,0,1-.26-2.59,26.56,26.56,0,0,1,.24-3.42l-.5-.1a10.75,10.75,0,0,1-2.84,5.6,10.9,10.9,0,0,1-5.62,2.81,8.74,8.74,0,0,1-6.28-.61,7.06,7.06,0,0,1-3.16-5l-3.29-15.76,6.26-1.31,3,14.26a4.62,4.62,0,0,0,1.8,3.1,4.56,4.56,0,0,0,3.53.44,6,6,0,0,0,3.19-1.7,6.4,6.4,0,0,0,1.6-3.31,11.7,11.7,0,0,0-.15-4.53l-2.19-10.5,6.26-1.31Z"/><path d="M1701.5,416.34a6.69,6.69,0,0,1-2.41-4.93l-1.41-12.47-3.67.41-.46-4.12,3.66-.42-.57-5.09,6.17-2.35.76,6.72,5.89-.66.47,4.12-5.9.67,1.29,11.42a3.51,3.51,0,0,0,1.13,2.5,3.57,3.57,0,0,0,2.66.52,10.9,10.9,0,0,0,4.07-1.37l.13,4.21a12.37,12.37,0,0,1-2.73,1.21,18.69,18.69,0,0,1-3.36.7Q1703.53,417.83,1701.5,416.34Z"/><path d="M1718.92,414.6a6.71,6.71,0,0,1-2.22-5l-.92-12.51-3.68.27-.3-4.14,3.68-.27-.38-5.11,6.26-2.11.49,6.75,7.63-.56.3,4.14-7.62.56.84,11.46a3.56,3.56,0,0,0,1,2.55,3.64,3.64,0,0,0,2.65.62,10.9,10.9,0,0,0,4.12-1.21l0,4.21a11.93,11.93,0,0,1-2.78,1.1,18.21,18.21,0,0,1-3.38.57Q1720.88,416.16,1718.92,414.6Z"/><path d="M1731.65,400.76l14-.55.17,4.46-14,.54Z"/><path d="M1750.53,413.19a5.45,5.45,0,0,1-1.87-4.44v-.07a6,6,0,0,1,1.27-3.88,8.66,8.66,0,0,1,3.52-2.51,27.69,27.69,0,0,1,5.6-1.56l6.25-1.12v-1.3a3.5,3.5,0,0,0-1.13-2.9,5.47,5.47,0,0,0-3.52-.93q-5.1,0-5.11,4.47c0,.29,0,.51,0,.65l-6.3-.54a4.82,4.82,0,0,1,0-.61,6.61,6.61,0,0,1,3-5.81q3-2,8.58-2c3.69,0,6.43.65,8.2,1.92a6.66,6.66,0,0,1,2.66,5.84l0,10.57a3.81,3.81,0,0,0,.14,1.18.89.89,0,0,0,.46.52,2.71,2.71,0,0,0,1,.17l1.1,0-.76,3.79a9.24,9.24,0,0,1-1.8.15,9.93,9.93,0,0,1-3.15-.4,3.07,3.07,0,0,1-1.7-1.2,3.74,3.74,0,0,1-.52-2.12,12.39,12.39,0,0,1,.29-2.4l-.44-.11a8.49,8.49,0,0,1-3.75,4.57,12.48,12.48,0,0,1-6.57,1.63A8.15,8.15,0,0,1,1750.53,413.19Zm11.3-3.46a6.42,6.42,0,0,0,2.51-2.18,5.51,5.51,0,0,0,1-3.11v-1.08l-4.07.78a21.82,21.82,0,0,0-3.46.91,5,5,0,0,0-2,1.22,2.7,2.7,0,0,0-.67,1.84v0c0,1.57,1.11,2.35,3.32,2.36A7.53,7.53,0,0,0,1761.83,409.73Z"/><path d="M1775.73,400.26l14,.55-.18,4.46-14-.55Z"/><path d="M1792.92,415.09l2.28-30.67,6.46.47-1.92,25.93,15.21,1.12-.35,4.76Z"/><path d="M1819.42,414.68q-2.88-3.42-2.21-9.18l0-.26q.67-5.79,4.25-8.47t9.76-2q6.16.72,9,4.14t2.21,9.22l0,.26q-.66,5.76-4.24,8.43t-9.74,2Q1822.3,418.1,1819.42,414.68Zm14.3-1.23a8.72,8.72,0,0,0,2.2-5.41L1836,407a8.71,8.71,0,0,0-.91-5.77,6.55,6.55,0,0,0-9.14-1.05,8.66,8.66,0,0,0-2.2,5.4l-.12,1.05a8.76,8.76,0,0,0,.9,5.77,6.55,6.55,0,0,0,9.15,1.06Z"/><path d="M1848.2,419.63a6.71,6.71,0,0,1-1-5.39l1.9-12.4-3.65-.56.63-4.1,3.65.55.78-5.06L1857,392l-1,6.69,7.56,1.16-.63,4.11-7.56-1.16-1.74,11.36a3,3,0,0,0,2.87,3.9,10.93,10.93,0,0,0,4.29-.25l-1,4.09a11.49,11.49,0,0,1-2.94.45,17.44,17.44,0,0,1-3.43-.2Q1849.78,421.59,1848.2,419.63Z"/></g></g></svg>