<svg xmlns="http://www.w3.org/2000/svg" viewBox="0 0 1928.5 5921.26"><defs><style>.cls-1,.cls-2,.cls-3{stroke:#ffc0ab;stroke-width:4px;}.cls-2,.cls-3,.cls-5{fill:none;}.cls-3{stroke-miterlimit:10;}.cls-4{fill:#fff;}.cls-5{stroke:#000;stroke-width:6px;}</style></defs><g id="Layer_2" data-name="Layer 2"><g id="left-sil"><path d="M5.5,197C330.65,118.13,561.17,241.22,702,548.76c21,39,124,154,163,193s42,65.71,2,91-46,10-56,38c0,0-14.16,36.8,18,77,8,10-21.08,42.31-4,85,10,25,31,23.62,32,37,3,40,49.52,124,48,168,8.37,136.75-186.25,135.1-198,272-17,168,59.27,202.65,105,373,97.63,307.5,57.51,1038.07,153.5,1354.5l-964,272Z"/></g><g id="rap-sil"><g id="butt-neg"><g id="rap-sil-2" data-name="rap-sil"><g id="butt-neg-2" data-name="butt-neg"><path class="cls-1" d="M1925.5,3185.25l-1,2720c-312,2-1919,14-1919,14,0-87.75-3-2596-3-2596s86-3,160-44c87.66-48.57,50-27,195-144s495.41-121.18,608,101c126.87,250.34,197,250,279,223s102,73,10,86c-103,8-139-188-169-383"/></g></g></g></g><g id="right-sil"><path d="M1176.5,3230.25l751-18-6-3112c-154-31.61-513,86.95-530.5,291.5-10,117-93,122-208,209-48.1,36.38-141.41,137.24-134.5,192.5,4,32,72,41,85.5,62.5,22.32,35.54-27.5,44.39-27.5,81.5,0,17,44,67-19.5,110.5-17,11.63-2,37-16.5,79.5-13.9,40.74-50.5,139.5-30.5,175.5,23.32,42,50,47,116,94s82.86,110.7,78,180c-8,114-71.74,174-111,327-119.52,378.67-100.5,1187.5,39.5,1555.5"/></g><g id="butt-line"><path class="cls-2" d="M419.5,3098.25s-114-58-221-37-189,110-197,108"/></g><g id="right-sil-line"><path class="cls-3" d="M1104.5,937.25c0,17,44,66-19.5,109.5-17,11.63-2,37-16.5,79.5-13.9,40.74-50.5,139.5-30.5,175.5,23.32,42,50,47,116,94s82.86,110.7,78,180c-8,114-66.8,175.41-111,327-109.5,375.5-86.5,895.5-35.5,1259.5"/></g><g id="left-eye-white"><path class="cls-4" d="M365,720.75s124-22,176-56,61-76,61-76,21,45,13,86c-4.8,24.61-29,60-86,67C486,747,365,720.75,365,720.75Z"/></g><g id="right-eye-white"><path class="cls-4" d="M1428.55,499.3s17.71,1.72,45.44,10.35,80.14,31.74,111.15,51.62,80.58,47.39,80.58,47.39a75.87,75.87,0,0,0-12.74,3.1c-5.6,2-17.67,2.22-25.14,1.13s-12.44-3.33-30.89-8.54-75.69-25.12-91-32.21-44.8-22.27-58.13-36.07S1428.55,499.3,1428.55,499.3Z"/></g><g id="left-head"><path class="cls-4" d="M2.5,185.25c47-28,406.63-18.22,490.56,56.54,63.61,37.45,60.54,76.08,57.23,82.58.27-1.34-5.48-12.57-16.16-16.6a30.27,30.27,0,0,1,2.37,23c-3.67,13.34-28.45,13.55-32.16,11.54,11.84-6.37-3.69-18.25-11.21-20.75a.3.3,0,0,0-.28.52c2.75,2,6.78,6.93,5.65,17.69-1.63,16.95-29.69,16.49-33.42,14.55,2.51-2,11.79-10.31.42-15.55-3-1.3-7.84-3.11-7.39-1.6,2,.88,5.08,3.68,4.39,12.6-.64,9.92-23.3,16.29-27.25,15.32,2.15-2.1,7.33-8.59-5.75-12.32-7-2,0,2-2,11-3.31,16.18-28.38,15.68-33.46,12.64,7.17-3,9.49-19.74-4.6-17.67.6.53,5.08,9.92,1.06,18.53-8,13.75-18.22,12.49-27,13,2.16-1.91,4-12,0-17-4.56-5.83-11-4.89-10.48-3.19,6.48,20.19-8.82,34.46-31.52,33.19,0,0,4.7-5.52,4-11-.93-7.28-8-12-9-10s7,21-20,30c0,0,2-15-12-18-3.92-.84,7.75,19.59-8,28-15,8-26-1-25-1,16.28,0,6-19-4-21-3.49-.7,5,4,1,15-2.73,7.51-19.8,17.38-35,13,12.86-4.91,2-19-9-14-.05,0,6.89,5.16,1.28,13-3.41,4.75-8.35,9-20.28,13,1.87-.63,3.39-7.95-1-13-2.65-3.06-7-5-14-6-2.21-.32-2,11,8,11,1.72,0-10,7.82-21,6-6-1-13-5-18-10-1.55-1.55,0,13,20,16,4.33.65-15,9-28,8-26.23-2-24.31-22.5-26-18-6,16,11,17,11,17-29,9-36-5-40-12-1.06-1.87-5,6,0,11s13.28,5.67,13,6c-6,7-20.15,11.62-30,9-15-4-13.29-16.87-14-16-9,11,6.19,15.93,6,16-12,4-20.94,2.95-30-11.51C18.76,462,4.69,469,2.5,469.25,1.55,469.33,2.9,185,2.5,185.25Z"/></g><g id="right-head"><path class="cls-4" d="M1928.5,74.75l-74-12c-39.37-6.39-172.37-20.83-260,51-105.87,86.78-118,117-118,117s149.28,107.9,246.7,140.92c85.56,29,205.3,115.08,205.3,115.08Z"/></g><g id="line-cover"><polyline class="cls-5" points="1925 3209.25 1925 5905.75 6 5916.75 3 3325.25"/></g><g id="Type"><text/><text/><path d="M47.15,143.56l8.56-20.36A26.3,26.3,0,0,1,57,120.38l-.18-.26c-.94.17-2,.33-3.09.47l-9,1.15-.49-3.81L64,115.41l.08.18L56,135.4a28.59,28.59,0,0,1-1.43,3.32l.17.24c.78-.15,1.73-.29,2.86-.44l9.59-1.23.49,3.83-20.45,2.62Z"/><path d="M89.34,139.1l-5.4.5a11.59,11.59,0,0,1,0-2.2,25.79,25.79,0,0,1,.53-2.85l-.4-.13a8.46,8.46,0,0,1-7.9,6.25A7.3,7.3,0,0,1,71,139.56a5.94,5.94,0,0,1-2.18-4.46l-1.25-13.54,5.37-.5,1.14,12.24a3.93,3.93,0,0,0,1.22,2.77,3.83,3.83,0,0,0,2.92.71A5,5,0,0,0,81,135.66,5.4,5.4,0,0,0,82.69,133a9.93,9.93,0,0,0,.31-3.82l-.84-9,5.38-.5Z"/><path d="M94.85,136.59q-2.85-2.42-3.15-7.41l0-.24c-.19-3.27.56-5.81,2.27-7.61s4.32-2.8,7.82-3c3.21-.2,5.72.33,7.52,1.56a8,8,0,0,1,3.26,5.79l-5.34.93a6.14,6.14,0,0,0-1.64-3.8,4.61,4.61,0,0,0-3.61-1.07,4.72,4.72,0,0,0-3.74,1.8,7.11,7.11,0,0,0-1,4.74l.06.91a7.35,7.35,0,0,0,1.6,4.7,4.73,4.73,0,0,0,4,1.38,4.49,4.49,0,0,0,4.7-5l5.49.28a7.57,7.57,0,0,1-2.72,5.79q-2.52,2.06-7.28,2.34Q97.72,139,94.85,136.59Z"/><path d="M115.54,111.54l5.4-.16.24,8.24c0,1.22,0,2.29,0,3.19a27.86,27.86,0,0,1-.39,3l.3.12,7.44-8.31,5.9-.17-6.62,7.36L134.88,137l-5.61.17L124,127.92l-2.54,2.71.2,6.72-5.4.16Z"/><path d="M135,125.08,146.9,125l0,3.77-11.86.07Z"/><path d="M150.75,110.92l13.57.29a9,9,0,0,1,5.76,1.74,5.79,5.79,0,0,1,1.84,4.8v.09a5.8,5.8,0,0,1-1.2,3.68,5.31,5.31,0,0,1-3.3,1.75v.34a6.25,6.25,0,0,1,3.85,2.14,6.49,6.49,0,0,1,1.23,4.28v.07a6.84,6.84,0,0,1-2.2,5.38q-2.13,1.8-6.23,1.71l-13.87-.3Zm16,18.5v-.08c.06-2.7-1.35-4.09-4.22-4.15l-6.64-.15-.18,8.28,6.64.14C165.24,133.52,166.7,132.18,166.76,129.42Zm-.31-11v-.07q.08-3.41-3.84-3.5l-6.47-.14-.16,7,6.48.14Q166.38,121.9,166.45,118.42Z"/><path d="M194.9,138.67l-5.41-.31a10.55,10.55,0,0,1,.36-2.18,25.42,25.42,0,0,1,1-2.73l-.38-.19a9.11,9.11,0,0,1-3.55,3.94,9.22,9.22,0,0,1-5.2,1.05,7.36,7.36,0,0,1-5-1.88,5.93,5.93,0,0,1-1.48-4.74l.8-13.58,5.39.32-.72,12.28a3.87,3.87,0,0,0,.78,2.91,3.8,3.8,0,0,0,2.79,1.14,5,5,0,0,0,3-.68,5.39,5.39,0,0,0,2-2.34,10,10,0,0,0,.88-3.73l.53-9,5.39.32Z"/><path d="M200.77,137q-2.51-2.77-2.11-7.77V129c.26-3.27,1.35-5.68,3.29-7.23s4.66-2.19,8.16-1.92q4.81.38,7.24,2.58a8,8,0,0,1,2.43,6.18l-5.41.19a6.09,6.09,0,0,0-1.11-4,4.64,4.64,0,0,0-3.43-1.56,4.71,4.71,0,0,0-4,1.27,7.13,7.13,0,0,0-1.68,4.56l-.07.91a7.39,7.39,0,0,0,1,4.87,4.72,4.72,0,0,0,3.76,1.91,5,5,0,0,0,3.64-.9,5.13,5.13,0,0,0,1.7-3.39l5.39,1a7.57,7.57,0,0,1-3.48,5.36c-1.85,1.13-4.37,1.57-7.54,1.32Q203.28,139.78,200.77,137Z"/><path d="M224.35,114.94l5.38.48-.74,8.21c-.11,1.22-.25,2.27-.41,3.16a26.58,26.58,0,0,1-.76,3l.29.16,8.37-7.37,5.88.53-7.44,6.52,5.62,12.88-5.6-.51-4.1-9.76L228,134.6l-.6,6.69-5.38-.48Z"/><path d="M242.06,130.65l11.8,1.16-.37,3.75-11.8-1.16Z"/><path d="M253.5,143.74l11.75-24.87,6.59.7,6.29,26.79-5.72-.61-1.16-5.2-10.15-1.07-2.23,4.83ZM270.69,137l-1.41-6.87c-.46-2.08-.85-4.26-1.17-6.56l-.39,0q-1.07,3-2.47,6.2l-2.84,6.39Z"/><path d="M280.34,134.63,292.12,136l-.43,3.74-11.78-1.34Z"/><path d="M294.06,148.2l3.1-25.79,5.44.65L300,144.85l12.78,1.54-.48,4Z"/><path d="M316.59,148.79q-2.4-2.92-1.78-7.78l0-.22c.42-3.25,1.64-5.62,3.68-7.1s4.79-2,8.26-1.57,6,1.64,7.58,3.59,2.19,4.55,1.77,7.81l0,.22c-.42,3.24-1.64,5.6-3.68,7.07s-4.78,2-8.24,1.56S318.18,150.73,316.59,148.79Zm12.08-.9a7.31,7.31,0,0,0,1.91-4.54l.11-.89a7.26,7.26,0,0,0-.7-4.87,5.52,5.52,0,0,0-7.71-1,7.31,7.31,0,0,0-1.91,4.54l-.11.89a7.3,7.3,0,0,0,.7,4.88,4.76,4.76,0,0,0,3.66,2.07A4.7,4.7,0,0,0,328.67,147.89Z"/><path d="M341,153.09a5.69,5.69,0,0,1-1-4.54l1.42-10.5-3.09-.42.47-3.48,3.09.42.58-4.28,5.54-.66-.77,5.67,6.4.86-.47,3.48-6.4-.87-1.3,9.62a3,3,0,0,0,.4,2.28,3.08,3.08,0,0,0,2.08,1,9.24,9.24,0,0,0,3.61-.28l-.77,3.47a9.78,9.78,0,0,1-2.48.42,14.16,14.16,0,0,1-2.89-.12A6.71,6.71,0,0,1,341,153.09Z"/><path d="M1634.42,27.59l10-4.31q11.19-4.83,16.33,7.07l0,.07q5.13,11.86-6.06,16.71l-10,4.31Zm22.43,12.21q.72-2.56-1-6.56L1655.3,32c-1.16-2.68-2.53-4.43-4.09-5.25a6.25,6.25,0,0,0-5.58.15l-4.68,2,7.28,16.87,4.69-2A6.23,6.23,0,0,0,1656.85,39.8Z"/><path d="M1662.51,23.12l5.15-1.67a7.89,7.89,0,0,1,.46,2,25.35,25.35,0,0,1,.09,3.06l.39.05a13.57,13.57,0,0,1,1-3.73,6.8,6.8,0,0,1,1.9-2.47,12.35,12.35,0,0,1,3.29-1.86l2,4.07-2.47,1a7.43,7.43,0,0,0-2.89,1.88,4.39,4.39,0,0,0-1,2.72,12.16,12.16,0,0,0,.73,4.06l2.51,7.74-5.13,1.67Z"/><path d="M1679.4,25.62l11.49-2.9.92,3.65-11.49,2.9Z"/><path d="M1692.36,8l13.4-2.19q3.79-.61,6,.66a5.79,5.79,0,0,1,2.69,4.38l0,.09a5.79,5.79,0,0,1-.51,3.84,5.29,5.29,0,0,1-2.93,2.32l.06.33a6.26,6.26,0,0,1,4.17,1.41,6.5,6.5,0,0,1,2,4v.08a6.86,6.86,0,0,1-1.19,5.69q-1.76,2.16-5.81,2.81l-13.7,2.24Zm16.81,4.52,0-.08c-.36-2.24-1.83-3.16-4.41-2.74l-6.39,1,1.12,6.87,6.39-1Q1709.73,15.9,1709.17,12.48Zm2.31,10.75v-.08c-.44-2.67-2.07-3.78-4.9-3.31L1700,20.9l1.33,8.17L1707.9,28Q1712.15,27.31,1711.48,23.23Z"/><path d="M1740.75,27.88l-5.39.53a10.81,10.81,0,0,1,0-2.2,25.88,25.88,0,0,1,.51-2.85l-.4-.13a9.13,9.13,0,0,1-2.89,4.44,9.23,9.23,0,0,1-5,1.85,7.32,7.32,0,0,1-5.22-1.08,6,6,0,0,1-2.2-4.46l-1.32-13.53,5.37-.53,1.2,12.24a3.89,3.89,0,0,0,1.23,2.76,3.8,3.8,0,0,0,2.93.7,5,5,0,0,0,2.82-1.14,5.27,5.27,0,0,0,1.65-2.63,10,10,0,0,0,.29-3.82l-.88-9,5.37-.53Z"/><path d="M1747.6,26.48a5.68,5.68,0,0,1-1.83-4.27l-.66-10.57-3.11.19-.21-3.5,3.11-.19-.27-4.32,5.3-1.72.36,5.7,5-.31.21,3.5-5,.31.6,9.69a3,3,0,0,0,.85,2.16,3,3,0,0,0,2.22.55,9.25,9.25,0,0,0,3.49-1l-.07,3.55a9.68,9.68,0,0,1-2.36.9,14.48,14.48,0,0,1-2.86.45A6.71,6.71,0,0,1,1747.6,26.48Z"/><path d="M1762.44,25.67a5.65,5.65,0,0,1-1.72-4.3l-.41-10.59-3.12.12-.14-3.5,3.12-.12L1760,3l5.34-1.6.22,5.71,6.46-.26.13,3.51-6.45.25.38,9.7a3,3,0,0,0,.79,2.18,3.11,3.11,0,0,0,2.21.6,9.4,9.4,0,0,0,3.51-.9l-.15,3.55a10.31,10.31,0,0,1-2.38.85,15.52,15.52,0,0,1-2.87.38A6.72,6.72,0,0,1,1762.44,25.67Z"/><path d="M1773.49,14.34l11.86-.24.07,3.77-11.85.24Z"/><path d="M1786.33,26l9.12-26h6.62l9,26h-5.76L1803.66,21l-10.21,0-1.72,5Zm16.41-8.48-2.12-6.69q-1-3-1.84-6.4h-.39c-.5,2-1.11,4.17-1.82,6.41l-2.16,6.66Z"/><path d="M1812.14,14.16l11.85.27-.08,3.77-11.86-.27Z"/><path d="M1827,26.44,1828.05.49l5.47.22-.92,21.94,12.87.53-.17,4Z"/><path d="M1849.39,25.32c-1.71-1.84-2.46-4.4-2.24-7.65l0-.23c.22-3.27,1.3-5.7,3.24-7.31s4.66-2.29,8.15-2.06,6.08,1.28,7.79,3.13,2.46,4.41,2.24,7.68l0,.22q-.33,4.89-3.24,7.29t-8.13,2.05C1853.71,28.2,1851.1,27.16,1849.39,25.32Zm12-1.62a7.35,7.35,0,0,0,1.64-4.65l0-.89a7.31,7.31,0,0,0-1-4.83,5.54,5.54,0,0,0-7.76-.52,7.29,7.29,0,0,0-1.63,4.65l-.06.89a7.3,7.3,0,0,0,1,4.83,5.53,5.53,0,0,0,7.75.52Z"/><path d="M1873.92,28.26a5.7,5.7,0,0,1-1.14-4.5l1-10.55-3.1-.29.33-3.49,3.1.29.41-4.3,5.5-.88-.53,5.69,6.42.61-.33,3.49-6.43-.61-.91,9.66a3,3,0,0,0,.49,2.27,3.08,3.08,0,0,0,2.12.89,9.21,9.21,0,0,0,3.6-.43l-.63,3.5a9.94,9.94,0,0,1-2.46.53,14.8,14.8,0,0,1-2.9,0A6.71,6.71,0,0,1,1873.92,28.26Z"/></g></g></svg>