<svg xmlns="http://www.w3.org/2000/svg" viewBox="0 0 1931.17 5591.61"><defs><style>.cls-1{fill:#fff;}.cls-2,.cls-4,.cls-5{fill:none;}.cls-2,.cls-3,.cls-4{stroke:#ffc0ab;}.cls-2,.cls-4{stroke-miterlimit:10;}.cls-2,.cls-5{stroke-width:5px;}.cls-3,.cls-4{stroke-width:4px;}.cls-5{stroke:#000;}.cls-6{font-size:72px;fill:#ffc0ab;}.cls-19,.cls-20,.cls-6{font-family:RightGrotesk-WideMedium, Right Grotesk;font-weight:500;}.cls-7{letter-spacing:-0.01em;}.cls-8{letter-spacing:-0.01em;}.cls-9{letter-spacing:-0.01em;}.cls-10{letter-spacing:0.01em;}.cls-11{letter-spacing:-0.04em;}.cls-12{letter-spacing:-0.01em;}.cls-13{letter-spacing:-0.01em;}.cls-14{letter-spacing:0em;}.cls-15{letter-spacing:-0.01em;}.cls-16{letter-spacing:0em;}.cls-17{letter-spacing:-0.02em;}.cls-18{letter-spacing:-0.06em;}.cls-19{font-size:44px;}.cls-20{font-size:45px;}</style></defs><g id="Layer_2" data-name="Layer 2"><g id="left-sil"><path d="M5.67,219.19c325.15-78.88,555.67,44.2,696.49,351.74,21,39,124,154,163,193s42,65.72,2,91-46,10-56,38c0,0-14.16,36.8,18,77,8,10-21.08,42.31-4,85,10,25,31,23.62,32,37,3,40,49.52,124,48,168,8.37,136.75-186.25,135.1-198,272-17,168,59.27,202.65,105,373,97.63,307.5,32.51,996.07,128.5,1312.5l-935,124Z"/></g><g id="left-sil-line"><line class="cls-1" x1="5.67" y1="3109.42" x2="5.67" y2="219.19"/><path class="cls-2" d="M832.17,970.92c8,10-24.08,41.81-7,84.5,10,25,31,23.62,32,37,20.56,101.8,110.81,215.3-29,293-74,41-115.74,95.06-121,147-17,168,59.27,202.65,105,373,97.63,307.5,33,986.07,129,1302.5"/></g><g id="rap-sil"><g id="butt-neg"><path class="cls-3" d="M1927.67,3208.42v2376c-55,3-1922,10-1922,0,0-87.75-8.26-2345.4,0-2349,241-105,641-144,945-27,381.74,146.92,658.5,482,827,463,149.2-16.82,129-238-44-216-125.61,16-437,408-637-243"/></g></g><g id="cover"><path d="M1118.28,3289.9c32,15.92,384.6,250.08,405.65,273,15.78,17.2-125,137.82-292.09-38.3C1146.62,3434.83,1094.17,3277.92,1118.28,3289.9Z"/></g><g id="right-sil"><path d="M1176.67,3252.42l752-32-3-3097c-158-32.61-517,86-534.5,290.5-10,117-93,122-208,209-48.09,36.39-141.41,137.25-134.5,192.5,4,32,72,41,85.5,62.5,22.32,35.55-27.5,44.39-27.5,81.5,0,17,44,67-19.5,110.5-17,11.64-2,37-16.5,79.5-13.9,40.74-50.5,139.5-30.5,175.5,23.32,42,50,47,116,94s82.86,110.71,78,180c-8,114-71.74,174.06-111,327-119.52,378.67-122.5,924.5-20.5,1295.5"/></g><g id="right-sil-line"><path class="cls-4" d="M1104.67,959.42c0,17,44,66-19.5,109.5-17,11.64-2,37-16.5,79.5-13.9,40.74-50.5,139.5-30.5,175.5,23.32,42,50,47,116,94s82.86,110.71,78,180c-8,114-71.74,174.06-111,327-119.52,378.67-123.5,987.5-5.5,1345.5"/></g><g id="left-eye-white"><path class="cls-1" d="M365.17,742.92s124-22,176-56,61-76,61-76,21,45,13,86c-4.8,24.62-29,60-86,67C486.2,769.2,365.17,742.92,365.17,742.92Z"/></g><g id="right-eye-white"><path class="cls-1" d="M1428.73,521.48s17.7,1.71,45.43,10.35,80.14,31.74,111.15,51.62,80.58,47.39,80.58,47.39a75.35,75.35,0,0,0-12.74,3.09c-5.6,2.06-17.67,2.23-25.14,1.13s-12.44-3.32-30.88-8.53-75.7-25.13-91-32.21S1461.33,572,1448,558.25,1428.73,521.48,1428.73,521.48Z"/></g><g id="left-head"><path class="cls-1" d="M2.67,207.42c47-28,406.63-18.22,490.56,56.55,63.61,37.44,60.54,76.07,57.23,82.58.27-1.35-5.48-12.57-16.16-16.61a30.27,30.27,0,0,1,2.37,23c-3.67,13.34-28.45,13.55-32.16,11.55,11.84-6.37-3.69-18.26-11.2-20.75a.3.3,0,0,0-.29.51c2.75,2,6.78,6.94,5.65,17.69-1.63,16.95-29.69,16.5-33.42,14.56,2.51-2,11.79-10.31.42-15.56-3-1.3-7.84-3.1-7.39-1.6,2,.88,5.08,3.68,4.39,12.6-.64,9.93-23.3,16.3-27.24,15.32,2.14-2.1,7.33-8.58-5.76-12.32-7-2,0,2-2,11-3.31,16.19-28.38,15.69-33.46,12.64,7.17-3,9.49-19.73-4.6-17.66.6.52,5.08,9.91,1.06,18.52-8,13.75-18.22,12.5-27,13,2.16-1.91,4-12,0-17-4.56-5.82-11-4.88-10.48-3.19,6.48,20.19-8.82,34.46-31.52,33.19,0,0,4.7-5.52,4-11-.93-7.27-8-12-9-10s7,21-20,30c0,0,2-15-12-18-3.92-.84,7.75,19.6-8,28-15,8-26-1-25-1,16.28,0,6-19-4-21-3.49-.7,5,4,1,15-2.73,7.52-19.8,17.38-35,13,12.86-4.91,2-19-9-14,0,0,6.89,5.17,1.28,13-3.41,4.75-8.35,9-20.28,13,1.87-.62,3.39-7.95-1-13-2.65-3.05-7-5-14-6-2.21-.32-2,11,8,11,1.73,0-10,7.83-21,6-6-1-13-5-18-10-1.55-1.55,0,13,20,16,4.33.65-15,9-28,8-26.23-2-24.31-22.5-26-18-6,16,11,17,11,17-29,9-36-5-40-12-1.06-1.86-5,6,0,11s13.28,5.67,13,6c-6,7-20.14,11.63-30,9-15-4-13.29-16.86-14-16-9,11,6.2,15.94,6,16-12,4-20.94,3-30-11.5-2.74,8.22-16.81,15.29-19,15.5C1.72,491.5,3.07,207.18,2.67,207.42Z"/></g><g id="right-head"><path class="cls-1" d="M1928.67,96.92l-74-12c-39.37-6.38-172.37-20.83-260,51-105.87,86.78-118,117-118,117S1626,360.83,1723.37,393.84c85.56,29,205.3,115.08,205.3,115.08Z"/></g><g id="line-cover"><polyline class="cls-5" points="1928.67 3212.42 1928.17 5584.92 6.17 5584.92 5.67 3235.42"/></g><g id="Type"><text/><text class="cls-6" transform="translate(118.25 3411)">N<tspan class="cls-7" x="50.77" y="0">o</tspan><tspan class="cls-8" x="95.48" y="0">w</tspan><tspan x="153.25" y="0" xml:space="preserve"> l</tspan><tspan class="cls-9" x="185.41" y="0">e</tspan><tspan class="cls-10" x="229.78" y="0">t</tspan><tspan class="cls-11" x="261.18" y="0">’</tspan><tspan class="cls-12" x="275.45" y="0">s</tspan><tspan x="316.34" y="0" xml:space="preserve"> put</tspan><tspan class="cls-13" x="453.27" y="0"> </tspan><tspan class="cls-14" x="467.47" y="0">t</tspan><tspan class="cls-7" x="498.41" y="0">w</tspan><tspan x="556.14" y="0">o and </tspan><tspan class="cls-14" x="0" y="86.4">t</tspan><tspan class="cls-7" x="30.94" y="86.4">w</tspan><tspan x="88.66" y="86.4">o</tspan><tspan class="cls-13" x="134.19" y="86.4"> </tspan><tspan class="cls-15" x="148.39" y="86.4">t</tspan><tspan class="cls-16" x="178.56" y="86.4">o</tspan><tspan class="cls-17" x="223.73" y="86.4">g</tspan><tspan class="cls-9" x="264.41" y="86.4">e</tspan><tspan x="308.78" y="86.4">the</tspan><tspan class="cls-18" x="429.75" y="86.4">r</tspan><tspan x="456.26" y="86.4">.</tspan></text><text class="cls-19" transform="matrix(1, -0.07, 0.07, 1, 54.93, 163.13)">Z</text><text class="cls-19" transform="translate(79.18 161.48) rotate(-2.57)">u</text><text class="cls-19" transform="matrix(1, -0.03, 0.03, 1, 106.44, 160.26)">c</text><text class="cls-19" transform="translate(133.75 159.57) rotate(-0.61)">k</text><text class="cls-19" transform="translate(156.34 159.34)">-</text><text class="cls-19" transform="translate(172.93 159.3) rotate(0.69)">b</text><text class="cls-19" transform="matrix(1, 0.03, -0.03, 1, 201.1, 159.64)">u</text><text class="cls-19" transform="matrix(1, 0.04, -0.04, 1, 228.4, 160.38)">c</text><text class="cls-19" transform="matrix(1, 0.06, -0.06, 1, 255.71, 161.55)">k</text><text class="cls-19" transform="translate(278.24 162.89) rotate(4.09)">-</text><text class="cls-19" transform="translate(294.72 164.02) rotate(5.05)">a</text><text class="cls-19" transform="matrix(0.99, 0.11, -0.11, 0.99, 320.46, 166.33)">-</text><text class="cls-19" transform="translate(336.91 168.11) rotate(6.93)">l</text><text class="cls-19" transform="translate(347.22 169.25) rotate(8.29)">o</text><text class="cls-19" transform="translate(373.93 173.19) rotate(10.37)">t</text><text/><text/><text class="cls-20" transform="matrix(0.69, -0.72, 0.72, 0.69, 1592.22, 108.69)">D</text><text class="cls-20" transform="matrix(0.82, -0.57, 0.57, 0.82, 1613.4, 87.36)">r</text><text class="cls-20" transform="matrix(0.88, -0.47, 0.47, 0.88, 1627.7, 77.29)">-</text><text class="cls-20" transform="translate(1641.57 69.25) rotate(-20.2)">B</text><text class="cls-20" transform="translate(1668.65 59.35) rotate(-11.78)">u</text><text class="cls-20" transform="matrix(0.99, -0.11, 0.11, 0.99, 1695.48, 54.04)">t</text><text class="cls-20" transform="translate(1712.83 52.06) rotate(-4.2)">t</text><text class="cls-20" transform="matrix(1, -0.04, 0.04, 1, 1730.77, 50.74)">-</text><text class="cls-20" transform="translate(1747.48 49.98) rotate(0.14)">a</text><text class="cls-20" transform="translate(1773.74 50.12) rotate(2.26)">-</text><text class="cls-20" transform="translate(1790.51 50.72) rotate(4.24)">L</text><text class="cls-20" transform="translate(1814.46 52.44) rotate(6.59)">o</text><text class="cls-20" transform="translate(1841.9 55.68) rotate(8.71)">t</text></g></g></svg>