<svg xmlns="http://www.w3.org/2000/svg" viewBox="0 0 1934.01 6314.65"><defs><style>.cls-1,.cls-2,.cls-3{stroke:#ffc0ab;stroke-width:4px;}.cls-2,.cls-3,.cls-5{fill:none;}.cls-3{stroke-miterlimit:10;}.cls-4{fill:#fff;}.cls-5{stroke:#000;stroke-width:14px;}</style></defs><g id="Layer_2" data-name="Layer 2"><g id="left-sil"><path d="M8,583.39c325.14-78.89,555.67,44.2,696.48,351.74,21,39,124,154,163,193s42,65.71,2,91-46,10-56,38c0,0-14.16,36.8,18,77,8,10-21.08,42.31-4,85,10,25,31,23.62,32,37,3,40,49.51,124,48,168,8.37,136.75-186.26,135.1-198,272-17,168,59.27,202.65,105,373,97.62,307.5,32.51,996.07,128.5,1312.5l-939,314Z"/></g><g id="rap-sil"><g id="butt-neg"><path class="cls-1" d="M1928,3584.62l-1,2713c-312,2-1923,10-1923,0v-2544s153-62,217-119c73.55-65.51,149-165,312-213,167.78-49.41,381,28,470,142,339.87,435.35,924,16,924,24,0,0-627.6,641.3-828-11"/></g></g><g id="cover"><path d="M1142,3692.62c12.3,5.45,150.06,105.41,299,98,241-12,389-149,486-200,19.89-10.46-49.69,173.83-104,226-140.72,135.14-435,180-574,93C1144.07,3843.94,1063,3657.62,1142,3692.62Z"/></g><g id="right-sil"><path d="M1179,3616.62l751-32-2-3097c-158-32.61-517,86-534.5,290.5-10,117-93,122-208,209-48.1,36.38-141.41,137.25-134.5,192.5,4,32,72,41,85.5,62.5,22.32,35.55-27.5,44.39-27.5,81.5,0,17,44,67-19.5,110.5-17,11.63-2,37-16.5,79.5-13.9,40.74-50.5,139.5-30.5,175.5,23.31,42,50,47,116,94s82.86,110.71,78,180c-8,114-71.74,174.06-111,327C1006,2668.79,1003,3214.62,1105,3585.62"/></g><g id="butt-line"><path class="cls-2" d="M482,3438.62s-95.57-75.68-246-57c-145,18-232,138-232,138"/></g><g id="right-sil-line"><path class="cls-3" d="M1107,1323.62c0,17,44,66-19.5,109.5-17,11.63-2,37-16.5,79.5-13.9,40.74-50.5,139.5-30.5,175.5,23.31,42,50,47,116,94s82.86,110.71,78,180c-8,114-71.74,174.06-111,327-119.53,378.67-123.5,987.5-5.5,1345.5"/></g><g id="left-eye-white"><path class="cls-4" d="M367.51,1107.12s124-22,176-56,61-76,61-76,21,45,13,86c-4.81,24.61-29,60-86,67C488.54,1133.39,367.51,1107.12,367.51,1107.12Z"/></g><g id="right-eye-white"><path class="cls-4" d="M1431.06,885.68s17.71,1.71,45.43,10.34,80.14,31.74,111.15,51.63S1668.22,995,1668.22,995a76.1,76.1,0,0,0-12.74,3.1c-5.59,2.06-17.66,2.22-25.13,1.13s-12.45-3.32-30.89-8.53-75.69-25.13-91-32.22-44.81-22.27-58.13-36.07S1431.06,885.68,1431.06,885.68Z"/></g><g id="left-head"><path class="cls-4" d="M5,571.62c47-28,406.63-18.22,490.55,56.54,63.61,37.45,60.55,76.08,57.23,82.59.28-1.35-5.48-12.58-16.16-16.61a30.31,30.31,0,0,1,2.38,23c-3.68,13.34-28.46,13.55-32.17,11.55,11.85-6.38-3.69-18.26-11.2-20.75a.29.29,0,0,0-.28.51c2.75,2,6.78,6.94,5.65,17.69-1.63,17-29.7,16.5-33.42,14.55,2.5-2,11.79-10.3.42-15.55-3-1.3-7.85-3.1-7.4-1.6,2,.88,5.08,3.68,4.4,12.6-.65,9.93-23.3,16.29-27.25,15.32,2.15-2.1,7.33-8.58-5.75-12.32-7-2,0,2-2,11-3.32,16.18-28.39,15.68-33.46,12.64,7.17-3,9.48-19.74-4.6-17.66.6.52,5.07,9.91,1.06,18.52-8,13.75-18.23,12.49-27,13,2.16-1.91,4-12,0-17-4.57-5.82-11-4.89-10.49-3.19,6.49,20.19-8.81,34.46-31.51,33.19,0,0,4.7-5.52,4-11-.93-7.27-8-12-9-10s7,21-20,30c0,0,2-15-12-18-3.92-.84,7.75,19.6-8,28-15,8-26-1-25-1,16.27,0,6-19-4-21-3.49-.7,5,4,1,15-2.74,7.52-19.81,17.38-35,13,12.86-4.91,2-19-9-14,0,0,6.9,5.17,1.29,13-3.42,4.75-8.35,9-20.28,13,1.87-.63,3.39-8-1-13-2.66-3-7-5-14-6-2.22-.32-2,11,8,11,1.72,0-10,7.82-21,6-6-1-13-5-18-10-1.55-1.55,0,13,20,16,4.33.65-15,9-28,8-26.23-2-24.32-22.5-26-18-6,16,11,17,11,17-29,9-36-5-40-12-1.07-1.86-5,6,0,11s13.28,5.67,13,6c-6,7-20.15,11.63-30,9-15-4-13.3-16.87-14-16-9,11,6.19,15.93,6,16-12,4-20.94,3-30-11.5-2.74,8.22-16.81,15.29-19,15.5C4.05,855.7,5.41,571.38,5,571.62Z"/></g><g id="right-head"><path class="cls-4" d="M1931,461.12l-74-12c-39.37-6.39-172.37-20.83-260,51-105.88,86.78-118,117-118,117S1628.28,725,1725.7,758C1811.27,787,1931,873.12,1931,873.12Z"/></g><g id="line-cover"><polyline class="cls-5" points="1924.01 3599.62 1927.01 6297.62 7.01 6307.62 9.01 3754.62"/><text/></g><g id="Type"><text/><text/><path d="M49.66,529.93l8.56-20.36a26.48,26.48,0,0,1,1.28-2.82l-.18-.26c-.94.17-2,.33-3.08.47l-9,1.15-.49-3.81,19.69-2.52.08.18-8,19.81a30.42,30.42,0,0,1-1.43,3.32l.16.24c.78-.15,1.73-.29,2.86-.44l9.59-1.22.49,3.82-20.44,2.62Z"/><path d="M91.84,525.47l-5.39.5a10.14,10.14,0,0,1,0-2.2,24,24,0,0,1,.53-2.85l-.41-.13A8.44,8.44,0,0,1,78.7,527a7.29,7.29,0,0,1-5.21-1.11,5.91,5.91,0,0,1-2.18-4.46l-1.26-13.54,5.38-.5,1.14,12.25a3.92,3.92,0,0,0,1.21,2.76,3.81,3.81,0,0,0,2.93.71A5.08,5.08,0,0,0,83.54,522a5.37,5.37,0,0,0,1.66-2.62,9.8,9.8,0,0,0,.3-3.83l-.83-9,5.37-.5Z"/><path d="M97.36,523c-1.91-1.6-3-4.08-3.16-7.41v-.24q-.3-4.9,2.27-7.61t7.82-3q4.81-.29,7.52,1.57a7.94,7.94,0,0,1,3.25,5.78l-5.33.93a6.19,6.19,0,0,0-1.64-3.8,4.63,4.63,0,0,0-3.62-1.07,4.73,4.73,0,0,0-3.74,1.8,7.13,7.13,0,0,0-1,4.75l0,.9a7.44,7.44,0,0,0,1.6,4.7,4.69,4.69,0,0,0,4,1.38,5,5,0,0,0,3.48-1.39,5.07,5.07,0,0,0,1.22-3.59l5.48.29a7.55,7.55,0,0,1-2.71,5.78c-1.69,1.37-4.11,2.15-7.29,2.34Q100.22,525.38,97.36,523Z"/><path d="M118.05,497.91l5.4-.15.24,8.23c0,1.22,0,2.29,0,3.19a27.86,27.86,0,0,1-.39,3l.3.12L131,504l5.9-.17-6.62,7.36,7.11,12.12-5.62.16-5.22-9.2L124,517l.19,6.71-5.39.16Z"/><path d="M137.55,511.45l11.85-.08,0,3.77-11.86.07Z"/><path d="M153.25,497.29l13.58.3q3.84.07,5.75,1.73a5.82,5.82,0,0,1,1.85,4.8v.09a5.77,5.77,0,0,1-1.19,3.68,5.29,5.29,0,0,1-3.31,1.75V510a6.28,6.28,0,0,1,3.85,2.14A6.48,6.48,0,0,1,175,516.4v.07a6.85,6.85,0,0,1-2.21,5.38c-1.41,1.2-3.49,1.77-6.22,1.71l-13.88-.3Zm16,18.5v-.07q.09-4.07-4.21-4.16l-6.64-.15-.19,8.28,6.65.14C167.74,519.9,169.21,518.55,169.27,515.79Zm-.32-11v-.08q.07-3.41-3.84-3.5l-6.48-.14-.15,7,6.47.14Q168.88,508.27,169,504.8Z"/><path d="M197.4,525.05l-5.41-.32a11.84,11.84,0,0,1,.36-2.17,27,27,0,0,1,1-2.74l-.38-.19a9.09,9.09,0,0,1-3.54,3.94,9.26,9.26,0,0,1-5.21,1,7.33,7.33,0,0,1-5-1.88,6,6,0,0,1-1.47-4.74l.79-13.58,5.39.32L183.17,517a4,4,0,0,0,.79,2.92,3.86,3.86,0,0,0,2.78,1.14,5,5,0,0,0,3-.69,5.33,5.33,0,0,0,2-2.34,9.66,9.66,0,0,0,.88-3.73l.53-9,5.39.32Z"/><path d="M203.28,523.38q-2.5-2.79-2.12-7.78l0-.24q.38-4.9,3.29-7.23t8.16-1.91c3.2.24,5.62,1.1,7.23,2.58A7.94,7.94,0,0,1,222.3,515l-5.42.19a6.11,6.11,0,0,0-1.1-4,4.66,4.66,0,0,0-3.44-1.56,4.73,4.73,0,0,0-4,1.27,7.18,7.18,0,0,0-1.67,4.56l-.07.91a7.5,7.5,0,0,0,.94,4.88,4.76,4.76,0,0,0,3.76,1.91,4.49,4.49,0,0,0,5.34-4.3l5.39,1a7.53,7.53,0,0,1-3.47,5.36q-2.79,1.69-7.54,1.33Q205.77,526.15,203.28,523.38Z"/><path d="M226.86,501.31l5.38.48L231.5,510c-.11,1.22-.25,2.27-.42,3.17a28.6,28.6,0,0,1-.75,3l.28.16,8.38-7.37,5.88.53L237.42,516,243,528.85l-5.6-.5-4.09-9.76L230.51,521l-.61,6.69-5.37-.49Z"/><path d="M244.56,517l11.8,1.15-.37,3.75-11.8-1.15Z"/><path d="M256,530.11l11.75-24.87,6.59.7,6.3,26.79-5.72-.61-1.17-5.19-10.15-1.08-2.23,4.84Zm17.2-6.73-1.42-6.87c-.45-2.08-.84-4.26-1.17-6.56l-.39,0c-.7,2-1.53,4-2.46,6.19l-2.85,6.4Z"/><path d="M282.85,521l11.78,1.34-.43,3.74-11.78-1.34Z"/><path d="M296.57,534.57l3.1-25.79,5.43.65-2.62,21.8,12.79,1.53-.48,4Z"/><path d="M319.09,535.16c-1.6-1.94-2.19-4.54-1.77-7.78l0-.22c.41-3.25,1.64-5.62,3.67-7.1s4.79-2,8.27-1.56,6,1.64,7.58,3.59,2.19,4.55,1.77,7.8l0,.22c-.41,3.24-1.64,5.6-3.67,7.08s-4.78,2-8.25,1.55S320.69,537.1,319.09,535.16Zm12.09-.9a7.34,7.34,0,0,0,1.91-4.54l.11-.88a7.34,7.34,0,0,0-.7-4.88,5.54,5.54,0,0,0-7.72-1,7.34,7.34,0,0,0-1.9,4.55l-.12.88a7.34,7.34,0,0,0,.71,4.88,5.51,5.51,0,0,0,7.71,1Z"/><path d="M343.52,539.46a5.64,5.64,0,0,1-.95-4.54l1.42-10.5L340.9,524l.47-3.47,3.09.41.58-4.28,5.54-.65-.77,5.66,6.4.87-.47,3.47-6.4-.87-1.3,9.62a2.92,2.92,0,0,0,.4,2.28,3.05,3.05,0,0,0,2.08,1,9.25,9.25,0,0,0,3.61-.28l-.77,3.47a9.86,9.86,0,0,1-2.48.42,14.26,14.26,0,0,1-2.9-.12A6.71,6.71,0,0,1,343.52,539.46Z"/><path d="M1636.92,414l10-4.31q11.19-4.83,16.34,7.07l0,.07q5.13,11.88-6.06,16.71l-10,4.31Zm22.44,12.21c.47-1.71.13-3.89-1-6.56l-.54-1.25q-1.74-4-4.09-5.25a6.22,6.22,0,0,0-5.57.15l-4.69,2,7.29,16.86,4.68-2A6.25,6.25,0,0,0,1659.36,426.17Z"/><path d="M1665,409.49l5.15-1.67a8.35,8.35,0,0,1,.46,2,30.41,30.41,0,0,1,.09,3.06l.38.05a13.93,13.93,0,0,1,1-3.73,7,7,0,0,1,1.91-2.47,12.43,12.43,0,0,1,3.28-1.86l2,4.08-2.46,1a7.46,7.46,0,0,0-2.89,1.88,4.34,4.34,0,0,0-1,2.72,12.07,12.07,0,0,0,.72,4.06l2.52,7.75L1671,428Z"/><path d="M1681.9,412l11.5-2.9.92,3.65-11.5,2.9Z"/><path d="M1694.86,394.33l13.41-2.18a8.87,8.87,0,0,1,6,.65,5.83,5.83,0,0,1,2.69,4.38v.09a5.79,5.79,0,0,1-.5,3.84,5.35,5.35,0,0,1-2.93,2.33l0,.33a6.23,6.23,0,0,1,4.18,1.4,6.44,6.44,0,0,1,2,4l0,.08a6.9,6.9,0,0,1-1.19,5.69q-1.77,2.16-5.81,2.82L1699,420Zm16.81,4.52v-.08c-.37-2.24-1.84-3.16-4.41-2.74l-6.39,1.05,1.11,6.86,6.39-1Q1712.23,402.27,1711.67,398.85ZM1714,409.6l0-.07c-.43-2.68-2.07-3.78-4.9-3.32l-6.55,1.07,1.33,8.16,6.55-1.06C1713.24,413.91,1714.43,412.32,1714,409.6Z"/><path d="M1743.26,414.26l-5.39.52a10.14,10.14,0,0,1,0-2.2,25.88,25.88,0,0,1,.51-2.85l-.4-.12a8.46,8.46,0,0,1-7.87,6.28,7.34,7.34,0,0,1-5.23-1.08,6,6,0,0,1-2.19-4.46l-1.33-13.53,5.38-.53,1.19,12.25a4,4,0,0,0,1.23,2.76,3.86,3.86,0,0,0,2.93.69,5,5,0,0,0,2.83-1.14,5.33,5.33,0,0,0,1.64-2.63,9.76,9.76,0,0,0,.29-3.82l-.88-9,5.37-.52Z"/><path d="M1750.1,412.85a5.71,5.71,0,0,1-1.82-4.27l-.66-10.57-3.11.19-.22-3.5,3.11-.19-.27-4.32,5.31-1.72.35,5.7,5-.31.22,3.5-5,.31.6,9.69a3,3,0,0,0,.84,2.16,3,3,0,0,0,2.23.55,9.3,9.3,0,0,0,3.49-1l-.08,3.55a9.6,9.6,0,0,1-2.35.9,14.6,14.6,0,0,1-2.86.45A6.74,6.74,0,0,1,1750.1,412.85Z"/><path d="M1765,412a5.64,5.64,0,0,1-1.73-4.3l-.41-10.59-3.11.12-.14-3.5,3.11-.12-.16-4.32,5.34-1.6.22,5.71,6.45-.25.14,3.5-6.45.25.37,9.7a2.5,2.5,0,0,0,3,2.78,9.21,9.21,0,0,0,3.51-.9l-.16,3.55a10.4,10.4,0,0,1-2.37.85,15.64,15.64,0,0,1-2.87.38A6.72,6.72,0,0,1,1765,412Z"/><path d="M1776,400.71l11.85-.23.08,3.76-11.86.24Z"/><path d="M1788.84,412.33l9.11-26,6.62,0,9,26h-5.75l-1.7-5.05-10.2,0-1.72,5Zm16.4-8.48-2.12-6.69c-.66-2-1.27-4.15-1.84-6.4h-.39q-.75,3.06-1.81,6.41l-2.17,6.66Z"/><path d="M1814.65,400.53l11.85.27-.09,3.77-11.85-.27Z"/><path d="M1829.47,412.81l1.09-25.95,5.46.23-.91,21.93,12.86.54-.17,4Z"/><path d="M1851.9,411.69q-2.57-2.76-2.24-7.65v-.22q.33-4.9,3.25-7.32c1.94-1.6,4.66-2.29,8.15-2.05s6.08,1.27,7.79,3.12,2.45,4.41,2.23,7.68v.23q-.33,4.88-3.24,7.28c-1.94,1.6-4.66,2.28-8.14,2.05S1853.61,413.54,1851.9,411.69Zm12-1.62a7.29,7.29,0,0,0,1.63-4.65l.06-.89a7.3,7.3,0,0,0-1-4.83,5.53,5.53,0,0,0-7.75-.52,7.4,7.4,0,0,0-1.64,4.65l-.06.89a7.36,7.36,0,0,0,1,4.83,5.54,5.54,0,0,0,7.76.52Z"/><path d="M1876.43,414.63a5.62,5.62,0,0,1-1.14-4.5l1-10.54-3.1-.3.33-3.49,3.1.3.41-4.31,5.51-.88-.54,5.69,6.43.61-.33,3.49-6.43-.6-.91,9.66a3,3,0,0,0,.49,2.26,3,3,0,0,0,2.12.89,9.12,9.12,0,0,0,3.59-.42l-.62,3.5a10.42,10.42,0,0,1-2.47.52,14.8,14.8,0,0,1-2.9,0A6.67,6.67,0,0,1,1876.43,414.63Z"/></g></g></svg>