<svg xmlns="http://www.w3.org/2000/svg" viewBox="0 0 1930.35 6235.13"><defs><style>.cls-1{stroke:#ffc0ab;stroke-width:5px;}.cls-2,.cls-4{stroke:#000;stroke-width:9px;}.cls-3{fill:#fff;}.cls-4{fill:none;}</style></defs><g id="Layer_2" data-name="Layer 2"><g id="left-sil"><path d="M3.35,155.9C328.5,77,559,200.1,699.84,507.64c21,39,124,154,163,193s42,65.71,2,91-46,10-56,38c0,0-14.16,36.8,18,77,8,10-21.08,42.31-4,85,10,25,31,23.62,32,37,3,40,49.52,124,48,168,8.37,136.75-186.25,135.1-198,272-17,168,59.27,202.65,105,373,97.63,307.5,32.51,996.07,128.5,1312.5l-934,3Z"/></g><g id="rap-sil"><path class="cls-1" d="M939.85,3154.62c2.92,19-106,330.85-601,416-325.56,56-338.5,502.82-263,692,263,659,1187.94,238.19,1577.53,808.46C2196.91,6233.8,727.6,6241,6.85,6226.63l-3-3093.5"/><g id="butt-neg"><path class="cls-1" d="M1923.85,3134.13l-20.5,2339.56c-61.46-16.2-1379.14-806.08-1731.5-1297.06-389.74-543.05,137-1257,833-1072,328.13,87.24,604.54,369.67,748,375.93,150,6.54,135-193,2-177-125.71,15.12-333,578-641-147"/></g></g><g id="butt-neg_copy" data-name="butt-neg copy"><path d="M1178.35,3166.13l752-32-7-3096.4c-158-32.6-513,85.35-530.5,289.9-10,117-93,122-208,209-48.1,36.38-141.41,137.25-134.5,192.5,4,32,72,41,85.5,62.5,22.32,35.55-27.5,44.39-27.5,81.5,0,17,44,67-19.5,110.5-17,11.63-2,37-16.5,79.5-13.9,40.74-50.5,139.5-30.5,175.5,23.31,42,50,47,116,94s82.86,110.71,78,180c-8,114-71.74,174.06-111,327-119.53,378.67-122.5,924.5-20.5,1295.5"/></g><g id="cover2"><polyline class="cls-2" points="1923.85 2940.13 1923.85 5484.63 1737.85 5384.63"/></g><g id="Layer_19" data-name="Layer 19"><path class="cls-1" d="M50.85,6226.63l916.36-769.21"/><path class="cls-1" d="M704.46,4681.85c329.54,65.59,742.05,17.39,962.39,395.28,272,466.5,6,838.5-217,980.5-151.92,96.73-561,163.5-889.19,175l-553.31-6"/></g><g id="left-eye-white"><path class="cls-3" d="M362.85,679.63s124-22,176-56,61-76,61-76,21,45,13,86c-4.8,24.61-29,60-86,67C483.88,705.9,362.85,679.63,362.85,679.63Z"/></g><g id="right-eye-white"><path class="cls-3" d="M1426.4,458.19s17.71,1.71,45.44,10.34S1552,500.27,1583,520.15s80.58,47.39,80.58,47.39a75.87,75.87,0,0,0-12.74,3.1c-5.6,2.05-17.67,2.22-25.14,1.13s-12.45-3.32-30.89-8.53-75.69-25.13-91-32.22S1459,508.75,1445.68,495,1426.4,458.19,1426.4,458.19Z"/></g><g id="left-head"><path class="cls-3" d="M.35,144.13c47-28,406.63-18.22,490.55,56.54,63.61,37.45,60.55,76.08,57.23,82.59.28-1.35-5.47-12.58-16.16-16.61a30.26,30.26,0,0,1,2.38,23c-3.67,13.34-28.45,13.55-32.16,11.55C514,294.8,498.5,282.92,491,280.43a.29.29,0,0,0-.28.51c2.75,2,6.78,6.93,5.65,17.69-1.63,16.95-29.69,16.5-33.42,14.55,2.51-2,11.79-10.31.42-15.55-3-1.3-7.84-3.1-7.4-1.6,2,.88,5.09,3.68,4.4,12.6-.65,9.92-23.3,16.29-27.25,15.32,2.15-2.1,7.33-8.58-5.75-12.32-7-2,0,2-2,11C422,338.81,397,338.31,391.89,335.27c7.17-3,9.48-19.74-4.6-17.66.6.52,5.07,9.91,1.06,18.52-8,13.75-18.22,12.49-27,13,2.16-1.91,4-12,0-17-4.56-5.82-11-4.89-10.49-3.19,6.49,20.19-8.81,34.46-31.51,33.19,0,0,4.7-5.52,4-11-.93-7.27-8-12-9-10s7,21-20,30c0,0,2-15-12-18-3.92-.84,7.75,19.6-8,28-15,8-26-1-25-1,16.28,0,6-19-4-21-3.49-.7,5,4,1,15-2.74,7.52-19.81,17.38-35,13,12.86-4.91,2-19-9-14,0,0,6.89,5.17,1.28,13-3.41,4.75-8.35,9-20.28,13,1.87-.63,3.39-7.95-1-13-2.65-3.05-7-5-14-6-2.22-.32-2,11,8,11,1.72,0-10,7.82-21,6-6-1-13-5-18-10-1.55-1.55,0,13,20,16,4.33.65-15,9-28,8-26.23-2-24.32-22.5-26-18-6,16,11,17,11,17-29,9-36-5-40-12-1.07-1.86-5,6,0,11s13.28,5.67,13,6c-6,7-20.15,11.63-30,9-15-4-13.29-16.87-14-16-9,11,6.19,15.93,6,16-12,4-20.94,3-30-11.5-2.74,8.22-16.81,15.29-19,15.5C-.61,428.21.75,143.89.35,144.13Z"/></g><g id="right-head"><path class="cls-3" d="M1926.35,17.63l-74-12c-39.37-6.39-172.37-20.83-260,51-105.87,86.78-118,117-118,117S1623.63,281.53,1721,314.55c85.57,29,205.31,115.08,205.31,115.08Z"/></g><g id="Layer_20" data-name="Layer 20"><path class="cls-4" d="M7.85,2901.13l-.5,3325.5s469.72,9.9,663-7.5"/></g><g id="cover"><path d="M1611.35,3429.13c-90,164-478,199-508-285"/></g></g></svg>