<svg xmlns="http://www.w3.org/2000/svg" viewBox="0 0 1929 6310.13"><defs><style>.cls-1,.cls-2,.cls-3{stroke:#ffc0ab;stroke-width:4px;}.cls-2,.cls-3,.cls-5{fill:none;}.cls-3{stroke-miterlimit:10;}.cls-4{fill:#fff;}.cls-5{stroke:#000;stroke-width:7px;}</style></defs><g id="Layer_2" data-name="Layer 2"><g id="left-sil"><path d="M6,583.39c325.15-78.89,555.67,44.2,696.49,351.74,21,39,124,154,163,193s42,65.71,2,91-46,10-56,38c0,0-14.16,36.8,18,77,8,10-21.08,42.31-4,85,10,25,31,23.62,32,37,3,40,49.52,124,48,168,8.37,136.75-186.25,135.1-198,272-17,168,59.27,202.65,105,373C910.13,2576.62,870,3307.19,966,3623.62l-964,272Z"/></g><g id="rap-sil"><g id="butt-neg"><g id="rap-sil-2" data-name="rap-sil"><g id="butt-neg-2" data-name="butt-neg"><path class="cls-1" d="M1924,3568.62l2,2727c-312,2-1920,10-1920,10,0-87.75-3-2596-3-2596s86-3,160-44c87.66-48.57,50-27,195-144s468-105,608,101c97.34,143.23,94,175,183,245,123.13,96.84,214,143,349,175,126.59,30,268.85,56.65,278-12,6-45-55-66-78-9-61.71,152.94-399,222-588-406"/></g></g></g></g><g id="cover"><path d="M1266,3952.62c91,72.21,293.79,115.87,398,122,34,2,15,59-47,93-12.46,6.83-99.63,107.56-195,32C1325,4122.7,1208,3906.62,1266,3952.62Z"/></g><g id="right-sil"><path d="M1177,3616.62l751-18-6-3112c-154-31.61-513,87-530.5,291.5-10,117-93,122-208,209-48.1,36.38-141.41,137.25-134.5,192.5,4,32,72,41,85.5,62.5,22.32,35.55-27.5,44.39-27.5,81.5,0,17,44,67-19.5,110.5-17,11.63-2,37-16.5,79.5-13.9,40.74-50.5,139.5-30.5,175.5,23.32,42,50,47,116,94s82.86,110.71,78,180c-8,114-71.74,174.06-111,327C1004,2668.79,1000,3250.62,1110,3616.62"/></g><g id="butt-line"><path class="cls-2" d="M420,3484.62s-114-58-221-37-189,110-197,108"/></g><g id="right-sil-line"><path class="cls-3" d="M1105,1323.62c0,17,44,66-19.5,109.5-17,11.63-2,37-16.5,79.5-13.9,40.74-50.5,139.5-30.5,175.5,23.32,42,50,47,116,94s82.86,110.71,78,180c-8,114-71.74,174.06-111,327C1002,2667.79,998,3276.62,1116,3634.62"/></g><g id="left-eye-white"><path class="cls-4" d="M365.5,1107.12s124-22,176-56,61-76,61-76,21,45,13,86c-4.8,24.61-29,60-86,67C486.53,1133.39,365.5,1107.12,365.5,1107.12Z"/></g><g id="right-eye-white"><path class="cls-4" d="M1429.05,885.68s17.71,1.71,45.44,10.34,80.14,31.74,111.15,51.63S1666.22,995,1666.22,995a75.87,75.87,0,0,0-12.74,3.1c-5.6,2.06-17.67,2.22-25.14,1.13s-12.44-3.32-30.89-8.53-75.69-25.13-91-32.22-44.8-22.27-58.13-36.07S1429.05,885.68,1429.05,885.68Z"/></g><g id="left-head"><path class="cls-4" d="M3,571.62c47-28,406.63-18.22,490.56,56.54,63.61,37.45,60.54,76.08,57.23,82.59.27-1.35-5.48-12.58-16.16-16.61a30.27,30.27,0,0,1,2.37,23c-3.67,13.34-28.45,13.55-32.16,11.55,11.84-6.38-3.69-18.26-11.21-20.75a.29.29,0,0,0-.28.51c2.75,2,6.78,6.94,5.65,17.69-1.63,17-29.69,16.5-33.42,14.55,2.51-2,11.79-10.3.42-15.55-3-1.3-7.84-3.1-7.39-1.6,2,.88,5.08,3.68,4.39,12.6-.64,9.93-23.3,16.29-27.25,15.32,2.15-2.1,7.33-8.58-5.75-12.32-7-2,0,2-2,11-3.31,16.18-28.38,15.68-33.46,12.64,7.17-3,9.49-19.74-4.6-17.66.6.52,5.08,9.91,1.06,18.52-8,13.75-18.22,12.49-27,13,2.16-1.91,4-12,0-17-4.56-5.82-11-4.89-10.48-3.19,6.48,20.19-8.82,34.46-31.52,33.19,0,0,4.7-5.52,4-11-.93-7.27-8-12-9-10s7,21-20,30c0,0,2-15-12-18-3.92-.84,7.75,19.6-8,28-15,8-26-1-25-1,16.28,0,6-19-4-21-3.49-.7,5,4,1,15-2.73,7.52-19.8,17.38-35,13,12.86-4.91,2-19-9-14-.05,0,6.89,5.17,1.28,13-3.41,4.75-8.35,9-20.28,13,1.87-.63,3.39-8-1-13-2.65-3-7-5-14-6-2.21-.32-2,11,8,11,1.72,0-10,7.82-21,6-6-1-13-5-18-10-1.55-1.55,0,13,20,16,4.33.65-15,9-28,8-26.23-2-24.31-22.5-26-18-6,16,11,17,11,17-29,9-36-5-40-12-1.06-1.86-5,6,0,11s13.28,5.67,13,6c-6,7-20.15,11.63-30,9-15-4-13.29-16.87-14-16-9,11,6.19,15.93,6,16-12,4-20.94,3-30-11.5-2.74,8.22-16.81,15.29-19,15.5C2.05,855.7,3.4,571.38,3,571.62Z"/></g><g id="right-head"><path class="cls-4" d="M1929,461.12l-74-12c-39.37-6.39-172.37-20.83-260,51-105.87,86.78-118,117-118,117S1626.28,725,1723.7,758c85.56,29,205.3,115.08,205.3,115.08Z"/></g><g id="line-cover"><polyline class="cls-5" points="1925.5 3595.62 1925 6297.62 6 6306.62 3.5 3713.62"/><text/></g><g id="Type"><text/><text/><path d="M47.65,529.93l8.56-20.36a26.3,26.3,0,0,1,1.29-2.82l-.18-.26c-.94.17-2,.33-3.09.47l-9,1.15-.49-3.81,19.7-2.52.08.18-8,19.81a28.59,28.59,0,0,1-1.43,3.32l.17.24c.78-.15,1.73-.29,2.86-.44l9.59-1.22.49,3.82-20.45,2.62Z"/><path d="M89.84,525.47l-5.4.5a11.59,11.59,0,0,1,0-2.2,26.22,26.22,0,0,1,.53-2.85l-.4-.13A8.46,8.46,0,0,1,76.7,527a7.3,7.3,0,0,1-5.22-1.11,5.94,5.94,0,0,1-2.18-4.46l-1.25-13.54,5.37-.5,1.14,12.25a3.93,3.93,0,0,0,1.22,2.76,3.79,3.79,0,0,0,2.92.71A5,5,0,0,0,81.53,522a5.37,5.37,0,0,0,1.66-2.62,10,10,0,0,0,.31-3.83l-.84-9,5.38-.5Z"/><path d="M95.35,523c-1.9-1.6-2.95-4.08-3.15-7.41l0-.24c-.19-3.27.56-5.81,2.27-7.61s4.32-2.8,7.82-3q4.82-.29,7.52,1.57a8,8,0,0,1,3.26,5.78l-5.34.93a6.14,6.14,0,0,0-1.64-3.8,4.61,4.61,0,0,0-3.61-1.07,4.72,4.72,0,0,0-3.74,1.8,7.12,7.12,0,0,0-1,4.75l.06.9a7.33,7.33,0,0,0,1.6,4.7,4.67,4.67,0,0,0,4,1.38,4.49,4.49,0,0,0,4.7-5l5.49.29a7.56,7.56,0,0,1-2.72,5.78q-2.52,2.06-7.28,2.34Q98.22,525.38,95.35,523Z"/><path d="M116,497.91l5.4-.15.24,8.23c0,1.22,0,2.29,0,3.19a27.86,27.86,0,0,1-.39,3l.3.12L129,504l5.9-.17-6.62,7.36,7.11,12.12-5.61.16-5.23-9.2L122,517l.2,6.71-5.4.16Z"/><path d="M135.54,511.45l11.86-.08,0,3.77-11.86.07Z"/><path d="M151.25,497.29l13.57.3a8.92,8.92,0,0,1,5.76,1.73,5.81,5.81,0,0,1,1.84,4.8v.09a5.78,5.78,0,0,1-1.2,3.68,5.26,5.26,0,0,1-3.3,1.75V510a6.25,6.25,0,0,1,3.85,2.14A6.49,6.49,0,0,1,173,516.4v.07a6.84,6.84,0,0,1-2.2,5.38q-2.13,1.8-6.23,1.71l-13.87-.3Zm16,18.5v-.07q.09-4.07-4.22-4.16l-6.64-.15-.18,8.28,6.64.14Q167.18,519.93,167.26,515.79Zm-.31-11v-.08q.08-3.41-3.84-3.5l-6.47-.14-.16,7,6.48.14Q166.88,508.27,167,504.8Z"/><path d="M195.4,525.05l-5.41-.32a10.35,10.35,0,0,1,.36-2.17,24.75,24.75,0,0,1,1-2.74l-.38-.19a9.11,9.11,0,0,1-3.55,3.94,9.22,9.22,0,0,1-5.2,1,7.31,7.31,0,0,1-5-1.88A5.92,5.92,0,0,1,175.7,518l.8-13.58,5.39.32L181.17,517a3.39,3.39,0,0,0,3.57,4.06,5.08,5.08,0,0,0,3-.69,5.39,5.39,0,0,0,2-2.34,10,10,0,0,0,.88-3.73l.53-9,5.39.32Z"/><path d="M201.27,523.38q-2.51-2.79-2.11-7.78v-.24c.26-3.27,1.35-5.68,3.29-7.23s4.66-2.19,8.16-1.91q4.81.36,7.24,2.58a8,8,0,0,1,2.43,6.17l-5.41.19a6.11,6.11,0,0,0-1.11-4,4.64,4.64,0,0,0-3.43-1.56,4.71,4.71,0,0,0-4,1.27,7.13,7.13,0,0,0-1.68,4.56l-.07.91a7.44,7.44,0,0,0,1,4.88,4.74,4.74,0,0,0,3.76,1.91,5.09,5.09,0,0,0,3.64-.9,5.15,5.15,0,0,0,1.7-3.4l5.39,1a7.55,7.55,0,0,1-3.48,5.36c-1.85,1.13-4.37,1.57-7.54,1.33Q203.78,526.15,201.27,523.38Z"/><path d="M224.85,501.31l5.38.48-.74,8.21c-.11,1.22-.25,2.27-.41,3.17a26.46,26.46,0,0,1-.76,3l.29.16,8.37-7.37,5.88.53L235.42,516,241,528.85l-5.6-.5-4.1-9.76L228.5,521l-.6,6.69-5.38-.49Z"/><path d="M242.56,517l11.8,1.15-.37,3.75-11.8-1.15Z"/><path d="M254,530.11l11.75-24.87,6.59.7,6.29,26.79-5.72-.61-1.16-5.19-10.15-1.08-2.23,4.84Zm17.19-6.73-1.41-6.87c-.46-2.08-.85-4.26-1.17-6.56l-.39,0c-.71,2-1.53,4-2.47,6.19l-2.84,6.4Z"/><path d="M280.84,521l11.78,1.34-.43,3.74-11.78-1.34Z"/><path d="M294.56,534.57l3.1-25.79,5.44.65-2.62,21.8,12.78,1.53-.48,4Z"/><path d="M317.09,535.16c-1.6-1.94-2.19-4.54-1.78-7.78l0-.22c.42-3.25,1.64-5.62,3.68-7.1s4.79-2,8.26-1.56,6,1.64,7.58,3.59,2.19,4.55,1.77,7.8l0,.22c-.42,3.24-1.64,5.6-3.68,7.08s-4.78,2-8.24,1.55S318.68,537.1,317.09,535.16Zm12.08-.9a7.29,7.29,0,0,0,1.91-4.54l.11-.88a7.28,7.28,0,0,0-.7-4.88,5.52,5.52,0,0,0-7.71-1,7.34,7.34,0,0,0-1.91,4.55l-.11.88a7.29,7.29,0,0,0,.7,4.88,4.8,4.8,0,0,0,3.66,2.08A4.73,4.73,0,0,0,329.17,534.26Z"/><path d="M341.52,539.46a5.68,5.68,0,0,1-1-4.54l1.42-10.5-3.09-.42.47-3.47,3.09.41.58-4.28,5.54-.65-.77,5.66,6.4.87-.47,3.47-6.4-.87-1.3,9.62a3,3,0,0,0,.4,2.28,3.08,3.08,0,0,0,2.08,1,9.24,9.24,0,0,0,3.61-.28l-.77,3.47a9.78,9.78,0,0,1-2.48.42,14.16,14.16,0,0,1-2.89-.12A6.71,6.71,0,0,1,341.52,539.46Z"/><path d="M1634.92,414l10-4.31q11.19-4.83,16.33,7.07l0,.07q5.13,11.88-6.06,16.71l-10,4.31Zm22.43,12.21c.48-1.71.14-3.89-1-6.56l-.53-1.25c-1.16-2.68-2.53-4.43-4.09-5.25a6.25,6.25,0,0,0-5.58.15l-4.68,2,7.28,16.86,4.69-2A6.23,6.23,0,0,0,1657.35,426.17Z"/><path d="M1663,409.49l5.15-1.67a7.89,7.89,0,0,1,.46,2,25.35,25.35,0,0,1,.09,3.06l.39.05a13.57,13.57,0,0,1,1-3.73,6.89,6.89,0,0,1,1.9-2.47,12.35,12.35,0,0,1,3.29-1.86l2,4.08-2.47,1a7.54,7.54,0,0,0-2.89,1.88,4.39,4.39,0,0,0-1,2.72,12.12,12.12,0,0,0,.73,4.06l2.51,7.75L1669,428Z"/><path d="M1679.9,412l11.49-2.9.92,3.65-11.49,2.9Z"/><path d="M1692.86,394.33l13.4-2.18q3.79-.63,6,.65a5.81,5.81,0,0,1,2.69,4.38l0,.09a5.78,5.78,0,0,1-.51,3.84,5.35,5.35,0,0,1-2.93,2.33l.06.33a6.21,6.21,0,0,1,4.17,1.4,6.5,6.5,0,0,1,2,4v.08a6.86,6.86,0,0,1-1.19,5.69q-1.76,2.16-5.81,2.82L1697,420Zm16.81,4.52,0-.08c-.36-2.24-1.83-3.16-4.41-2.74l-6.39,1.05,1.12,6.86,6.39-1Q1710.23,402.27,1709.67,398.85ZM1712,409.6v-.07c-.44-2.68-2.07-3.78-4.9-3.32l-6.56,1.07,1.33,8.16,6.56-1.06Q1712.65,413.68,1712,409.6Z"/><path d="M1741.25,414.26l-5.39.52a10.81,10.81,0,0,1,0-2.2,25.88,25.88,0,0,1,.51-2.85l-.4-.12a8.43,8.43,0,0,1-7.87,6.28,7.32,7.32,0,0,1-5.22-1.08,6,6,0,0,1-2.2-4.46l-1.32-13.53,5.37-.53,1.2,12.25a3.93,3.93,0,0,0,1.23,2.76,3.84,3.84,0,0,0,2.93.69,5,5,0,0,0,2.82-1.14,5.27,5.27,0,0,0,1.65-2.63,10,10,0,0,0,.29-3.82l-.88-9,5.37-.52Z"/><path d="M1748.1,412.85a5.68,5.68,0,0,1-1.83-4.27l-.66-10.57-3.11.19-.21-3.5,3.11-.19-.27-4.32,5.3-1.72.36,5.7,5-.31.21,3.5-5,.31.6,9.69a2.51,2.51,0,0,0,3.07,2.71,9.25,9.25,0,0,0,3.49-1l-.07,3.55a9.68,9.68,0,0,1-2.36.9,14.48,14.48,0,0,1-2.86.45A6.71,6.71,0,0,1,1748.1,412.85Z"/><path d="M1762.94,412a5.64,5.64,0,0,1-1.72-4.3l-.41-10.59-3.12.12-.14-3.5,3.12-.12-.17-4.32,5.34-1.6.22,5.71,6.46-.25.13,3.5-6.45.25.38,9.7a3,3,0,0,0,.79,2.18,3,3,0,0,0,2.21.6,9.21,9.21,0,0,0,3.51-.9l-.15,3.55a10.31,10.31,0,0,1-2.38.85,15.52,15.52,0,0,1-2.87.38A6.72,6.72,0,0,1,1762.94,412Z"/><path d="M1774,400.71l11.86-.23.07,3.76-11.85.24Z"/><path d="M1786.83,412.33l9.12-26,6.62,0,9,26h-5.76l-1.69-5.05-10.21,0-1.72,5Zm16.41-8.48-2.12-6.69c-.67-2-1.28-4.15-1.84-6.4h-.39q-.75,3.06-1.82,6.41l-2.16,6.66Z"/><path d="M1812.64,400.53l11.85.27-.08,3.77-11.86-.27Z"/><path d="M1827.46,412.81l1.09-25.95,5.47.23L1833.1,409l12.87.54-.17,4Z"/><path d="M1849.89,411.69q-2.57-2.76-2.24-7.65l0-.22q.33-4.9,3.24-7.32c1.94-1.6,4.66-2.29,8.15-2.05s6.08,1.27,7.79,3.12,2.46,4.41,2.24,7.68l0,.23q-.33,4.88-3.24,7.28t-8.13,2.05C1854.21,414.58,1851.6,413.54,1849.89,411.69Zm12-1.62a7.35,7.35,0,0,0,1.64-4.65l0-.89a7.31,7.31,0,0,0-1-4.83,5.54,5.54,0,0,0-7.76-.52,7.34,7.34,0,0,0-1.63,4.65l-.06.89a7.3,7.3,0,0,0,1,4.83,5.53,5.53,0,0,0,7.75.52Z"/><path d="M1874.42,414.63a5.7,5.7,0,0,1-1.14-4.5l1-10.54-3.1-.3.33-3.49,3.1.3.41-4.31,5.5-.88-.53,5.69,6.42.61-.33,3.49-6.43-.6-.91,9.66a2.5,2.5,0,0,0,2.61,3.15,9.19,9.19,0,0,0,3.6-.42l-.63,3.5a10.44,10.44,0,0,1-2.46.52,14.8,14.8,0,0,1-2.9,0A6.71,6.71,0,0,1,1874.42,414.63Z"/></g></g></svg>