<svg xmlns="http://www.w3.org/2000/svg" viewBox="0 0 63.64 65.1"><defs><style>.cls-1{fill:#fff;}</style></defs><g id="Layer_2" data-name="Layer 2"><g id="Layer_1-2" data-name="Layer 1"><g id="Layer_2-2" data-name="Layer 2"><g id="Layer_1-2-2" data-name="Layer 1-2"><path class="cls-1" d="M42.17,56.3V51.1a7.19,7.19,0,0,0-2.3-5.3,2.45,2.45,0,0,1,1.6-4.3,27.4,27.4,0,0,0,7.4-1.7,14.05,14.05,0,0,0,9.2-11.6,20.88,20.88,0,0,0,.1-6.6,11.73,11.73,0,0,0-3.7-7,2,2,0,0,1-.4-2.3A12.16,12.16,0,0,0,55,7.7a10.55,10.55,0,0,0-.6-2.4c-.2-.7-.7-.3-1-.2a23,23,0,0,0-6.7,3.2,3.53,3.53,0,0,1-3.3.5,35.66,35.66,0,0,0-18.9,0A3.68,3.68,0,0,1,21,8.2,20.24,20.24,0,0,0,14,5c-.7-.2-1-.1-1.2.7a11.79,11.79,0,0,0,.1,5.6,4,4,0,0,1-.9,4.3A13.28,13.28,0,0,0,9,27.2c.3,1.3.6,2.7,1,4,1.7,5.6,5.9,8.2,11.2,9.5,1.5.3,3,.5,4.5.8a2.65,2.65,0,0,1,2.2,1.6,2.12,2.12,0,0,1-.5,2.5,7.6,7.6,0,0,0-1.9,5.2c.1,3.8,0,7.7,0,11.5a2.49,2.49,0,0,1-2.2,2.8,3.4,3.4,0,0,1-1-.1,2.38,2.38,0,0,1-2-2.4V59.5c0-.7-.2-.9-.9-.9a14.83,14.83,0,0,1-6.6-1.1c-3-1.3-5.5-3.2-6.8-6.4a5.34,5.34,0,0,0-3.7-3.3c-.2-.1-.3-.1-.5-.2a2.5,2.5,0,0,1-1.7-3v-.2a2.45,2.45,0,0,1,3.2-1.5h.1a12.48,12.48,0,0,1,7.4,6.5,6.49,6.49,0,0,0,3.9,3.7,14.87,14.87,0,0,0,4.7.7c.6,0,.9-.2.9-.8,0-2.2-.2-4.4.7-6.5.2-.6-.2-.6-.6-.7-1.5-.4-3-.9-4.5-1.4a18.89,18.89,0,0,1-2.5-1.1c-5.6-3.1-8.5-8-9.3-14.2-.5-3.7-.7-7.4.7-11A14.09,14.09,0,0,1,7,13.9a2.83,2.83,0,0,0,.6-2.5,18.39,18.39,0,0,1,.8-9,2.9,2.9,0,0,1,2.4-2,13.16,13.16,0,0,1,5.9.7A37.7,37.7,0,0,1,22.77,4a7.5,7.5,0,0,0,1.5,0,44,44,0,0,1,19.1,0A2.22,2.22,0,0,0,45,3.7,24.8,24.8,0,0,1,54.07.1c3-.4,4.1.3,5,3.2a13.86,13.86,0,0,1,.5,7.3,4.64,4.64,0,0,0,1.2,4.2,12.3,12.3,0,0,1,2.6,6.6,22.85,22.85,0,0,1-1.1,11.3c-2.4,6.6-7.2,10.7-14,12.5-2.1.6-2.1.5-1.6,2.6a13.42,13.42,0,0,1,.4,3.5V62.1c0,1.9-.9,3-2.4,3s-2.5-1.2-2.5-3.1V56.3Z"/></g></g></g></g></svg>