<svg xmlns="http://www.w3.org/2000/svg" viewBox="0 0 481.6 481.6"><defs><style>.cls-1{fill:#fff;}</style></defs><g id="Layer_2" data-name="Layer 2"><g id="Layer_1-2" data-name="Layer 1"><path class="cls-1" d="M67.2,0a67.2,67.2,0,1,0,67.2,67.2A67.37,67.37,0,0,0,67.2,0Zm0,22.4A44.8,44.8,0,1,1,22.4,67.2,44.63,44.63,0,0,1,67.2,22.4ZM358.4,145.6c-35.81,0-60.15,15.23-78.4,32.73V168a11.64,11.64,0,0,0-11.2-11.2H179.2A11.64,11.64,0,0,0,168,168V470.4a11.64,11.64,0,0,0,11.2,11.2h95.2a11.64,11.64,0,0,0,11.2-11.2v-168c0-14.18,4.47-27.61,11-36.75S311.11,252,319.2,252h11.2c8.09,0,16,4.51,22.57,13.65s11,22.58,11,36.75v168a11.63,11.63,0,0,0,11.2,11.2h95.2a11.64,11.64,0,0,0,11.2-11.2V408.8a11.2,11.2,0,1,0-22.4,0v50.4H386.4V302.4c0-18.71-5.59-36.26-15.23-49.7s-24-23.1-40.77-23.1H319.2c-16.73,0-31.13,9.67-40.77,23.11s-15.23,31-15.23,49.69v67.2h-6.65A11.21,11.21,0,1,0,257.6,392h5.6v22.4h-6.65a11.21,11.21,0,0,0,1.05,22.4h5.6v22.4H190.4v-280h67.2v28a11.2,11.2,0,0,0,19.95,7c18.81-23.44,38.84-46.2,80.85-46.2,40.17,0,64.15,10.33,79.1,27.83s21.7,44.11,21.7,78.57V364a11.2,11.2,0,1,0,22.4,0V274.4c0-37.33-7-69.75-27-93.1s-52-35.7-96.25-35.7Zm-337,11.2A11.6,11.6,0,0,0,11.2,168V470.4a11.64,11.64,0,0,0,11.2,11.2h95.2a11.64,11.64,0,0,0,11.19-11.2V168a11.64,11.64,0,0,0-11.19-11.2ZM33.6,179.2h72.8V369.6H99.75a11.21,11.21,0,0,0,1,22.4h5.6v22.4H99.75a11.21,11.21,0,0,0,1,22.4h5.6v22.4H33.6Z"/></g></g></svg>