<?xml version="1.0" encoding="utf-8"?>
<!-- Generator: Adobe Illustrator 25.3.1, SVG Export Plug-In . SVG Version: 6.00 Build 0)  -->
<svg version="1.1" id="Layer_1" xmlns="http://www.w3.org/2000/svg" xmlns:xlink="http://www.w3.org/1999/xlink" x="0px" y="0px"
	 viewBox="0 0 700 700" style="enable-background:new 0 0 700 700;" xml:space="preserve">
<style type="text/css">
	.st0{fill-rule:evenodd;clip-rule:evenodd;stroke:#000000;stroke-miterlimit:10;}
	.st1{fill-rule:evenodd;clip-rule:evenodd;stroke:#030303;stroke-width:5;stroke-miterlimit:10;}
	.st2{fill-rule:evenodd;clip-rule:evenodd;stroke:#000000;stroke-width:6;stroke-miterlimit:10;}
</style>
<path class="st0" d="M421.4,131.5c-19.4-2.7-40.4,0.5-57.9,10c-13.6,7.4-22.6,19.1-30.7,30.2c-8.1,11.1-15.4,21.8-24.3,28.9
	c-14.9,12-30.2,23.4-46.5,27.4c-15.6,3.9-43.3,3.1-66.2,0.9c-22.9-2.2-41.5-5.5-41.5-5.5l0,0c-2.8-0.5-5.6,0.4-7.6,2.3
	c-2,1.9-3,4.7-2.6,7.5c0,0,1.7,12.5,4.7,27.8c3,15.3,7,33.2,12.9,45.9c13.2,28.5,31.1,57.2,57,77.1c29.4,22.6,66.3,38.5,103.9,40.6
	c36.6,2.1,74.5-8.7,105.5-27.8c27.1-16.7,47.2-43.1,62-69.9c14.5-26.2,26.2-56.6,25.7-87.9c-0.4-25.4-7.1-53.4-24.8-73.6
	C473.2,145.4,446.5,135,421.4,131.5L421.4,131.5z M418.9,148.8c22,3.1,45.1,12.6,58.8,28.2c13.8,15.7,20.1,39.9,20.5,62.3
	c0.5,26.7-9.9,54.5-23.5,79.1c-13.9,25.1-32.5,49.1-55.8,63.5c-28,17.3-62.8,27.1-95.3,25.3c-33.2-1.9-67.3-16.4-94.2-37.1
	c-22.5-17.3-39.3-43.5-51.8-70.5c-4.4-9.5-8.7-27.1-11.6-41.9c-1.6-8.5-1.8-10.5-2.6-15.4c6.9,1.1,13.7,2.5,30.7,4.1
	c23.7,2.3,51.7,3.8,72.2-1.3c21.1-5.2,38.1-18.6,53.2-30.8c11.7-9.4,19.7-21.5,27.5-32.3c7.8-10.7,15.4-19.9,24.9-25.1
	C385.6,149.5,403.2,146.6,418.9,148.8L418.9,148.8z"/>
<path class="st0" d="M430.4,181.4c-5-0.2-10,1.2-14.5,3.8c-8.7,5-12.8,14-12.5,23.2c0.2,8.4,4.6,15.4,11.6,19.6
	c7.6,4.6,16.8,5.2,25,1.1c7.9-4,12.1-11.4,13.2-19.3c1-7.8-0.3-17.1-8.4-23.2C440.3,183.2,435.4,181.6,430.4,181.4L430.4,181.4z
	 M424.6,200.3c2.7-1.7,7.1-1.8,9.6,0.2c1.8,1.5,2,4.6,1.6,6.9c-0.4,2.3-1.6,4.9-3.7,6.1c-2.4,1.3-6.3,0.7-8.1-0.4
	c-1.2-0.7-3-3.1-3.1-5.1C420.8,205.1,422.2,201.8,424.6,200.3L424.6,200.3z"/>
<path class="st0" d="M501.8,184.4l-5.5,16.6l31.2,10.4L502.5,228l9.7,14.6l39.8-26.6v0c2.8-1.9,4.3-5.1,3.8-8.4
	c-0.4-3.3-2.7-6.1-5.9-7.1L501.8,184.4z"/>
<path class="st0" d="M408.3,275.4c-4.5-0.1-8.3,3.1-9,7.6c0,0-2.7,16.3-4.6,21.8c-3.5,9.9-7.1,19.2-12.6,25.6
	c-8.9,10.4-20.9,18.9-33.7,24.1c-9.9,4-21.3,5.6-32.3,4.9c-4.3-0.3-13.2-2.7-20.3-5.1c-7.1-2.4-12.7-4.8-12.7-4.8
	c-2.2-0.9-4.6-1-6.8-0.1c-2.2,0.9-3.9,2.6-4.8,4.8c-0.9,2.2-0.9,4.6,0,6.8c0.9,2.2,2.7,3.9,4.8,4.7c0,0,6,2.5,13.7,5.1
	s16.7,5.5,24.7,6.1c13.4,0.9,27.4-1,40.1-6.1c15.4-6.2,29.6-16.3,40.4-29c8.2-9.6,12.3-21.1,15.8-31.1c3.4-9.6,5.4-25,5.4-25l0,0
	c0.4-2.5-0.3-5-1.9-7C413.2,276.7,410.8,275.5,408.3,275.4L408.3,275.4z"/>
<path class="st0" d="M388.7,95.6c-4.6,0.4-8.1,4.2-8.1,8.8s3.7,8.4,8.3,8.6c0.6,0,3.6,0.6,6.1,1.7c2.5,1.1,4.7,2.8,5.2,3.5
	c1.9,2.6,2.8,10.1,2,16c-0.6,4.8,2.7,9.2,7.5,9.8c4.8,0.6,9.2-2.7,9.8-7.5c1.1-8,1.8-19.3-5.3-28.8c-3.5-4.7-8-7.2-12.4-9.1
	s-8.3-2.9-12.3-3C389.3,95.5,389,95.5,388.7,95.6L388.7,95.6z"/>
<path class="st0" d="M439.4,98.2c-4.1-0.5-8.2,0-12.7,1.3c-4.5,1.2-9.4,3.1-13.5,7.2c-8.4,8.4-9.2,19.8-9.3,27.8v0
	c0,2.3,0.8,4.6,2.5,6.3c1.6,1.7,3.9,2.6,6.2,2.7s4.6-0.9,6.2-2.5c1.7-1.6,2.6-3.9,2.6-6.2c0-5.9,1.9-13.3,4.2-15.6
	c0.6-0.6,3-1.9,5.7-2.7s5.7-0.9,6.2-0.8l0,0c2.3,0.3,4.6-0.4,6.4-1.9c1.8-1.5,3-3.6,3.2-5.9s-0.4-4.6-1.9-6.4
	C443.8,99.7,441.7,98.5,439.4,98.2L439.4,98.2z"/>
<path class="st1" d="M196.9,267.7c-0.5,0-1,0.2-1.5,0.5L165,286.9c-1.6,1-2.2,3.3-1.3,5.1c0.9,1.8,3,2.4,4.6,1.4l30.4-18.8
	c1.4-0.8,2.1-2.6,1.7-4.3C199.9,268.7,198.5,267.6,196.9,267.7L196.9,267.7z"/>
<path class="st2" d="M200.7,290.2c-0.7,0-1.5,0.2-2.1,0.6l-26,16.4c-1.8,1.1-2.3,3.4-1.1,5.1c1.2,1.7,3.5,2.2,5.3,1.1l26-16.4v0
	c1.4-0.9,2.1-2.6,1.6-4.2C203.9,291.3,202.4,290.2,200.7,290.2L200.7,290.2z"/>
</svg>
